<svg width="24" height="24" viewBox="0 0 24 24" fill="none" xmlns="http://www.w3.org/2000/svg">
<rect width="24" height="24" rx="4" fill="#3390EC"/>
<path d="M18.8155 5.00145C18.6179 5.01573 18.424 5.06087 18.2412 5.13516H18.2387C18.0633 5.20292 17.2293 5.54469 15.9613 6.06275L11.4175 7.92691C8.15703 9.26402 4.95199 10.5808 4.95199 10.5808L4.99015 10.5664C4.99015 10.5664 4.76918 10.6371 4.53836 10.7912C4.39543 10.8792 4.27265 10.9949 4.17766 11.1312C4.0644 11.2931 3.9733 11.5407 4.00716 11.7967C4.06256 12.2297 4.35062 12.4893 4.55744 12.6326C4.76672 12.7777 4.96615 12.8454 4.96615 12.8454H4.97107L7.97669 13.8318C8.11149 14.2533 8.89259 16.7549 9.08032 17.3311C9.19112 17.6752 9.29884 17.8905 9.43364 18.0548C9.49806 18.1387 9.57582 18.2089 9.66692 18.2653C9.71424 18.293 9.76517 18.3143 9.81834 18.3288L9.78756 18.3216C9.7968 18.324 9.80418 18.3312 9.81095 18.3336C9.83557 18.3402 9.85219 18.3426 9.88359 18.3474C10.3594 18.4877 10.7416 18.1999 10.7416 18.1999L10.7632 18.1831L12.5377 16.6092L15.512 18.8319L15.5797 18.8601C16.1995 19.1251 16.8273 18.9776 17.1591 18.7174C17.4933 18.4553 17.6232 18.1202 17.6232 18.1202L17.6448 18.0662L19.9431 6.59639C20.0084 6.31338 20.025 6.04836 19.953 5.79113C19.8791 5.53061 19.7075 5.30659 19.4722 5.16334C19.275 5.04642 19.0461 4.99001 18.8155 5.00145ZM18.7533 6.23064C18.7509 6.26841 18.7582 6.26421 18.741 6.33677V6.34336L16.4642 17.6938C16.4543 17.71 16.4377 17.7454 16.3922 17.7808C16.3441 17.818 16.306 17.8413 16.1059 17.764L12.4682 15.0472L10.2708 16.9983L10.7324 14.1262L16.6759 8.72978C16.9209 8.50793 16.839 8.46116 16.839 8.46116C16.8563 8.18894 16.4691 8.38141 16.4691 8.38141L8.97445 12.9042L8.97199 12.8922L5.37978 11.714V11.7116L5.37055 11.7098L5.38901 11.7026L5.40871 11.693L5.42779 11.6864C5.42779 11.6864 8.6353 10.3697 11.8957 9.03258C13.5281 8.36282 15.1728 7.68827 16.4377 7.16781C17.1879 6.86022 17.9388 6.55442 18.6905 6.25042C18.741 6.23124 18.717 6.23064 18.7533 6.23064Z" fill="#FAFAFA"/>
</svg>
