<?xml version="1.0" standalone="no"?>
<!DOCTYPE svg PUBLIC "-//W3C//DTD SVG 1.1//EN" "http://www.w3.org/Graphics/SVG/1.1/DTD/svg11.dtd" >
<svg xmlns="http://www.w3.org/2000/svg">
<metadata>Generated by IcoMoon</metadata>
<defs>
<font id="icons" horiz-adv-x="1024">
<font-face units-per-em="1024" ascent="960" descent="-64" />
<missing-glyph horiz-adv-x="1024" />
<glyph unicode="&#x20;" horiz-adv-x="512" d="" />
<glyph unicode="&#xe900;" glyph-name="circle" d="M512-44.308c-271.894 0-492.308 220.414-492.308 492.308s220.414 492.308 492.308 492.308c271.894 0 492.308-220.414 492.308-492.308s-220.414-492.308-492.308-492.308zM512-64c282.77 0 512 229.23 512 512s-229.23 512-512 512c-282.77 0-512-229.23-512-512s229.23-512 512-512z" />
<glyph unicode="&#xe901;" glyph-name="round" d="M1024 448c0-282.774-229.226-512-512-512-282.77 0-512 229.226-512 512 0 282.77 229.23 512 512 512 282.774 0 512-229.23 512-512z" />
<glyph unicode="&#xe902;" glyph-name="mark" horiz-adv-x="1088" d="M357.248-34.944l187.136 953.088h184.96l-189.312-953.088h-182.784zM39.552 354.56l32.64 171.904h974.848l-32.64-171.904h-974.848z" />
<glyph unicode="&#xe903;" glyph-name="phone" d="M964.426-64c-118.517 0-235.617 25.845-351.289 77.54-115.674 51.695-220.918 124.928-315.733 219.705-94.815 94.817-168.050 200.059-219.705 315.733s-77.502 232.771-77.54 351.289c0 17.067 5.689 31.289 17.067 42.667s25.6 17.067 42.667 17.067h230.4c13.274 0 25.126-4.513 35.556-13.54s16.592-19.684 18.489-31.972l36.978-199.111c1.896-15.171 1.422-27.971-1.422-38.4s-8.059-19.437-15.644-27.022l-137.956-139.378c18.963-35.082 41.472-68.968 67.527-101.66 26.055-32.694 54.746-64.228 86.073-94.606 29.392-29.394 60.207-56.661 92.444-81.806s66.37-48.128 102.399-68.949l133.689 133.689c8.533 8.533 19.684 14.945 33.451 19.228s27.267 5.461 40.505 3.527l196.267-39.822c13.272-3.794 24.178-10.678 32.711-20.651s12.8-21.106 12.8-33.394v-230.4c0-17.067-5.689-31.289-17.067-42.667s-25.6-17.067-42.667-17.067z" />
<glyph unicode="&#xe904;" glyph-name="close1" d="M21.423 938.577c28.564 28.564 74.875 28.564 103.44 0l387.137-387.138 387.138 387.138c28.562 28.564 74.876 28.564 103.439 0s28.562-74.875 0-103.44l-387.137-387.137 387.137-387.138c28.562-28.562 28.562-74.876 0-103.439s-74.876-28.562-103.439 0l-387.138 387.137-387.137-387.137c-28.564-28.562-74.876-28.562-103.44 0s-28.564 74.876 0 103.439l387.138 387.138-387.138 387.137c-28.564 28.564-28.564 74.876 0 103.44z" />
<glyph unicode="&#xe905;" glyph-name="plus" d="M512 946.077c28.278 0 51.2-22.923 51.2-51.2v-383.246h383.247c28.278 0 51.2-22.923 51.2-51.2s-22.922-51.199-51.2-51.199h-383.247v-383.247c0-28.278-22.922-51.2-51.2-51.2-28.277 0-51.2 22.922-51.2 51.2v383.247h-383.246c-28.277 0-51.2 22.922-51.2 51.199s22.923 51.2 51.2 51.2h383.246v383.246c0 28.277 22.923 51.2 51.2 51.2z" />
<glyph unicode="&#xe906;" glyph-name="check" horiz-adv-x="1536" d="M1435.017 925.862c-39.817 39.822-99.55 39.822-139.375 0l-746.666-746.667-308.622 308.623c-39.823 39.822-99.556 39.822-139.378 0s-39.822-99.556 0-139.378l378.312-378.307c19.911-19.917 39.822-29.867 69.688-29.867s49.778 9.95 69.689 29.867l816.352 816.352c39.825 39.822 39.825 99.555 0 139.378z" />
<glyph unicode="&#xe907;" glyph-name="triangle" horiz-adv-x="890" d="M77.913 43.153v809.695l701.217-404.848-701.217-404.847zM879.304 428.722c14.841 8.568 14.841 29.988 0 38.556l-834.783 481.963c-14.84 8.568-33.391-2.142-33.391-19.278v-963.923c0-17.136 18.551-27.848 33.391-19.28l834.783 481.963z" />
<glyph unicode="&#xe908;" glyph-name="up" horiz-adv-x="1303" d="M93.096-47.681h1117.095c11.311 0.037 22.388 3.193 32.061 9.132s17.557 14.438 22.807 24.585c5.26 10.138 7.68 21.541 7.010 32.973-0.67 11.427-4.403 22.457-10.808 31.899l-558.544 816.873c-23.148 33.869-78.879 33.869-102.089 0l-558.546-816.873c-6.465-9.422-10.257-20.458-10.962-31.908s1.702-22.882 6.96-33.038c5.258-10.166 13.167-18.674 22.866-24.604s20.819-9.058 32.15-9.039z" />
<glyph unicode="&#xe909;" glyph-name="down" horiz-adv-x="1303" d="M1210.173 943.683h-1117.087c-11.31-0.036-22.396-3.194-32.065-9.135s-17.555-14.439-22.808-24.58c-5.254-10.141-7.676-21.541-7.007-32.972s4.405-22.461 10.805-31.903l558.546-816.876c23.148-33.866 78.879-33.866 102.089 0l558.542 816.876c6.47 9.423 10.259 20.458 10.966 31.908s-1.704 22.878-6.963 33.040c-5.26 10.162-13.163 18.672-22.863 24.603s-20.815 9.057-32.154 9.039z" />
<glyph unicode="&#xe90a;" glyph-name="open" horiz-adv-x="2048" d="M1794.85 952.605l150.75-150.898-821.617-821.902c-13.165-13.249-28.82-23.764-46.065-30.938s-35.738-10.868-54.415-10.868c-18.678 0-37.171 3.693-54.415 10.868s-32.899 17.69-46.065 30.938l-822.044 821.902 150.756 150.756 771.555-771.413 771.56 771.555z" />
<glyph unicode="&#xe90b;" glyph-name="active" horiz-adv-x="2048" d="M251.737-62.001l-150.755 150.898 821.618 821.902c13.165 13.249 28.82 23.763 46.065 30.938s35.738 10.869 54.415 10.869c18.678 0 37.169-3.694 54.415-10.869 17.244-7.175 32.899-17.689 46.065-30.938l822.040-821.902-150.75-150.755-771.557 771.413-771.557-771.557z" />
<glyph unicode="&#xe90c;" glyph-name="arrow45" d="M755.503 691.503c16.661-16.663 16.661-43.677 0-60.34l-426.666-426.666c-16.663-16.661-43.677-16.661-60.34 0s-16.662 43.678 0 60.339l426.667 426.667c16.661 16.662 43.678 16.662 60.339 0zM256 661.333c0 23.564 19.103 42.667 42.667 42.667h426.667c23.565 0 42.667-19.103 42.667-42.667v-426.667c0-23.565-19.102-42.667-42.667-42.667s-42.667 19.102-42.667 42.667v384h-384c-23.564 0-42.667 19.103-42.667 42.667z" />
<glyph unicode="&#xe90d;" glyph-name="calculator" d="M496.64 909.517c-7.827-3.727-14.145-9.552-18.376-16.75l-0.107-0.197c-2.611-4.659-2.918-22.938-3.686-205.619l-0.87-200.55-200.55-0.87c-221.030-0.922-204.646-0.051-215.347-11.366-16.742-17.613-11.776-48.128 9.728-60.006 4.659-2.611 22.938-2.918 205.619-3.686l200.55-0.87 0.87-200.55c0.768-182.682 1.075-200.96 3.686-205.619 6.819-11.855 19.414-19.708 33.843-19.708s27.024 7.854 33.743 19.52l0.1 0.189c2.611 4.659 2.918 22.938 3.686 205.619l0.87 200.55 200.55 0.87c221.030 0.922 204.646 0.051 215.347 11.366 16.742 17.613 11.776 48.128-9.728 60.006-4.659 2.611-22.938 2.918-205.619 3.686l-200.55 0.87-0.87 200.55c-0.922 221.030-0.051 204.646-11.366 215.347-7.168 6.166-16.565 9.92-26.839 9.92-5.279 0-10.326-0.991-14.965-2.797l0.281 0.096zM221.85 868.454c-8.361-3.935-15.191-9.943-20.009-17.376l-0.113-0.186c-4.608-7.782-4.608-7.936-5.171-47.36l-0.512-39.578-39.578-0.512c-39.424-0.563-39.578-0.563-47.36-5.171-5.016-3.201-9.256-7.115-12.713-11.657l-0.087-0.119c-4.557-6.554-5.018-8.499-5.018-21.146s0.461-14.643 5.018-21.197c3.544-4.661 7.784-8.575 12.605-11.66l0.195-0.116c7.782-4.557 7.936-4.608 47.36-5.12l39.578-0.563 0.512-39.578c0.563-39.424 0.563-39.578 5.171-47.36 3.215-5.006 7.127-9.244 11.658-12.713l0.118-0.087c6.502-4.506 8.55-4.966 20.992-4.966 12.134 0 14.592 0.512 20.326 4.454 7.697 5.246 13.492 12.78 16.451 21.615l0.087 0.298c0.922 3.328 1.69 22.374 1.69 42.291v36.301h36.301c19.917 0 38.963 0.768 42.291 1.69 9.133 3.045 16.668 8.841 21.82 16.392l0.094 0.146c3.891 5.683 4.454 8.192 4.454 20.173 0 12.237-0.512 14.387-4.966 20.992-3.517 4.739-7.762 8.707-12.611 11.816l-0.189 0.114c-7.782 4.608-7.936 4.608-47.36 5.171l-39.578 0.512-0.563 39.578c-0.512 39.424-0.563 39.578-5.12 47.36-3.209 5.030-7.179 9.261-11.801 12.658l-0.129 0.091c-6.144 4.096-9.421 5.018-19.302 5.376-6.605 0.256-13.107 0-14.541-0.563zM666.47 738.304c-29.133-13.466-28.365-56.832 1.229-69.222 5.478-2.253 19.2-2.611 100.659-2.611 88.218 0.051 94.822 0.256 101.171 3.226 28.621 13.21 28.621 55.398 0 68.608-6.349 2.97-12.954 3.174-101.53 3.174s-95.181-0.205-101.53-3.174zM672 335.411c-8.739-2.919-15.972-8.397-21.007-15.536l-0.087-0.131c-4.454-6.451-4.915-8.499-4.915-21.094 0-12.646 0.461-14.592 4.966-21.146 3.556-4.649 7.794-8.561 12.605-11.658l0.195-0.118 7.834-4.608 90.419-0.512c49.766-0.307 93.696-0.051 97.587 0.512 9.011 1.28 19.763 8.448 25.754 17.152 4.147 5.99 4.659 8.294 4.659 20.378 0 12.288-0.512 14.438-4.966 21.043-3.517 4.739-7.762 8.707-12.611 11.816l-0.189 0.114-7.834 4.608-93.85 0.307c-51.61 0.154-95.949-0.358-98.56-1.126zM154.47 311.654c-12.711-5.909-21.366-18.569-21.366-33.251 0-0.37 0.006-0.739 0.016-1.107l-0.001 0.054c0-14.746 3.174-19.251 37.171-53.35l31.898-32-31.898-32c-20.224-20.275-32.87-34.304-34.56-38.349-5.683-13.824-1.843-32.717 8.704-42.65 7.128-6.164 16.488-9.92 26.725-9.92 5.208 0 10.189 0.972 14.771 2.744l-0.28-0.095c4.045 1.69 18.074 14.336 38.349 34.56l32 31.898 32-31.898c20.275-20.224 34.304-32.87 38.349-34.56 13.824-5.683 32.717-1.843 42.65 8.704 6.164 7.128 9.92 16.488 9.92 26.725 0 5.208-0.972 10.189-2.744 14.771l0.095-0.28c-1.69 4.045-14.336 18.074-34.56 38.349l-31.898 32 31.898 32c20.224 20.275 32.87 34.304 34.56 38.349 1.677 4.303 2.649 9.283 2.649 14.491 0 10.237-3.755 19.597-9.963 26.777l0.044-0.052c-9.933 10.547-28.826 14.387-42.65 8.704-4.045-1.69-18.074-14.336-38.349-34.56l-32-31.898-32 31.898c-20.275 20.224-34.304 32.87-38.349 34.56-4.398 1.575-9.471 2.485-14.758 2.485-5.91 0-11.555-1.138-16.727-3.207l0.304 0.107zM672 207.411c-8.739-2.919-15.972-8.397-21.007-15.536l-0.087-0.131c-4.454-6.451-4.915-8.499-4.915-21.094 0-12.646 0.461-14.592 4.966-21.146 3.556-4.649 7.794-8.561 12.605-11.658l0.195-0.118 7.834-4.608 90.419-0.512c49.766-0.307 93.696-0.051 97.587 0.512 9.011 1.28 19.763 8.448 25.754 17.152 4.147 5.99 4.659 8.294 4.659 20.378 0 12.288-0.512 14.438-4.966 21.043-3.517 4.739-7.762 8.707-12.611 11.816l-0.189 0.114-7.834 4.608-93.85 0.307c-51.61 0.154-95.949-0.358-98.56-1.126z" />
<glyph unicode="&#xe90e;" glyph-name="search2" horiz-adv-x="1325" d="M406.408 911.33c-124.446-17.227-227.388-82.101-294.49-185.585-44.634-68.849-65.536-141.131-65.536-226.545 0.060-69.512 12.89-124.085 43.671-185.224 84.209-167.514 268.408-255.337 456.041-217.389 45.779 9.276 100.232 32.407 141.794 60.296l21.986 14.758 104.99-104.87c76.258-76.198 107.46-105.894 113.845-108.544 10.782-4.457 33.069-4.638 43.309-0.361 19.494 8.797 32.817 28.064 32.817 50.442 0 7.895-1.658 15.403-4.645 22.194l0.139-0.354c-3.313 7.349-23.371 28.913-76.619 82.281l-72.222 72.343 58.488 0.060c32.166 0 62.404 0.964 67.162 2.048 14.117 4.136 25.695 13.151 33.048 25.052l0.142 0.247c5.783 9.336 6.626 12.71 6.566 26.443-0.060 11.686-1.325 18.071-4.819 24.877-6.024 11.505-19.998 23.612-31.142 26.925-5.783 1.747-33.611 2.59-86.136 2.59-42.707 0-77.583 0.482-77.583 1.144 0 0.602 4.578 10.3 10.24 21.504 25.058 49.995 39.153 101.737 42.466 156.25l1.385 23.191 50.778 0.181c31.563 0.12 53.67 1.144 58.308 2.711 21.751 7.339 37.134 27.555 37.134 51.365 0 4.169-0.472 8.227-1.364 12.125l0.070-0.363c-3.244 15.602-13.199 28.386-26.641 35.404l-0.284 0.135-11.987 6.626-118.603 2.229-8.373 25.419c-20.184 60.743-52.116 112.836-93.384 155.915l0.14-0.147-17.709 18.673h112.821c71.861 0 116.736 0.904 123.784 2.409 14.965 3.461 27.294 12.777 34.678 25.347l0.138 0.253c4.056 7.753 6.436 16.935 6.436 26.673 0 8.712-1.905 16.98-5.321 24.409l0.15-0.364c-6.204 11.927-20.42 23.913-32.105 27.106-6.686 1.867-47.706 2.409-147.336 1.928l-137.999-0.602-10.421-5.18c-12.748-6.888-22.228-18.448-26.23-32.331l-0.093-0.377-2.349-9.096-22.408 10.541c-27.819 13.144-60.207 23.874-94.043 30.576l-2.695 0.445c-28.311 5.301-104.388 7.77-129.988 4.216zM520.132 798.991c95.473-21.143 172.213-81.98 213.353-169.201 5.963-12.649 10.842-23.492 10.842-24.154s-8.794-1.205-19.516-1.205c-10.722 0-24.335-1.506-30.359-3.253-47.104-14.095-52.164-79.511-7.831-100.292 11.565-5.361 14.517-5.783 44.152-5.783h31.804l-1.385-18.914c-4.757-53.855-22.551-102.751-50.175-144.584l0.722 1.164c-12.228-18.613-41.743-51.2-60.115-66.44-61.259-50.839-143.3-76.198-220.943-68.427-38.011 3.234-72.949 13.469-104.508 29.417l1.626-0.745c-51.197 25.11-93.244 61.981-123.798 107.249l-0.709 1.114c-19.596 30.639-34.659 66.346-43.139 104.532l-0.411 2.205c-4.879 22.648-5.602 92.582-1.144 113.062 14.637 67.042 40.9 116.616 85.414 161.31 47.803 47.694 111.231 79.745 181.942 87.812l1.414 0.131c20.239 2.168 73.246-0.663 92.762-5z" />
<glyph unicode="&#xe90f;" glyph-name="menu3" horiz-adv-x="1536" d="M0 533.333h1024v-170.667h-1024zM0-64v170.667h1536v-170.667zM0 960h512v-170.667h-512v170.667z" />
<glyph unicode="&#xe910;" glyph-name="filter" horiz-adv-x="878" d="M633.905 374.857c63.683 0 117.906-40.716 137.996-97.524h57.051c12.932 0 25.337-5.14 34.48-14.282s14.282-21.548 14.282-34.48c0-12.932-5.14-25.337-14.282-34.48s-21.548-14.282-34.48-14.282h-57.051c-10.074-28.55-28.755-53.277-53.472-70.763-24.717-17.491-54.248-26.882-84.524-26.882s-59.806 9.392-84.524 26.882c-24.717 17.486-43.398 42.213-53.472 70.763h-447.147c-12.932 0-25.335 5.14-34.48 14.282s-14.282 21.548-14.282 34.48c0 12.932 5.137 25.337 14.282 34.48s21.547 14.282 34.48 14.282h447.147c10.089 28.535 28.779 53.233 53.492 70.7 24.717 17.467 54.238 26.839 84.504 26.824zM633.905 277.333c-12.932 0-25.337-5.14-34.48-14.282s-14.282-21.548-14.282-34.48c0-12.932 5.14-25.337 14.282-34.48s21.548-14.282 34.48-14.282c12.932 0 25.337 5.14 34.48 14.282s14.282 21.548 14.282 34.48c0 12.932-5.14 25.337-14.282 34.48s-21.548 14.282-34.48 14.282zM243.81 667.429c28.72 0.004 56.806-8.447 80.756-24.298s42.704-38.401 53.924-64.839l3.267-8.387h447.195c12.429-0.014 24.381-4.773 33.421-13.305 9.036-8.532 14.473-20.192 15.204-32.599 0.727-12.407-3.311-24.624-11.288-34.155s-19.29-15.656-31.632-17.124l-5.705-0.341h-447.147c-9.83-27.809-27.835-51.995-51.652-69.393s-52.336-27.195-81.817-28.101c-29.48-0.907-58.547 7.119-83.389 23.020s-44.298 38.936-55.819 66.087l-3.316 8.387h-57.051c-12.428 0.014-24.383 4.773-33.42 13.305s-14.476 20.192-15.204 32.599c-0.728 12.407 3.308 24.624 11.285 34.155s19.292 15.656 31.634 17.124l5.705 0.341h57.051c10.088 28.534 28.777 53.235 53.493 70.702s54.239 26.838 84.503 26.822zM243.81 569.905c-12.933 0-25.335-5.138-34.48-14.282s-14.282-21.547-14.282-34.48c0-12.933 5.138-25.335 14.282-34.48s21.547-14.282 34.48-14.282c12.933 0 25.335 5.138 34.48 14.282s14.282 21.547 14.282 34.48c0 12.933-5.138 25.335-14.282 34.48s-21.547 14.282-34.48 14.282zM633.905 960c63.683 0 117.906-40.716 137.996-97.524h57.051c12.932 0 25.337-5.138 34.48-14.282s14.282-21.547 14.282-34.48c0-12.933-5.14-25.335-14.282-34.48s-21.548-14.282-34.48-14.282h-57.051c-10.074-28.552-28.755-53.276-53.472-70.764s-54.248-26.88-84.524-26.88c-30.276 0-59.806 9.391-84.524 26.88s-43.398 42.212-53.472 70.764h-447.147c-12.932 0-25.335 5.138-34.48 14.282s-14.282 21.547-14.282 34.48c0 12.933 5.137 25.335 14.282 34.48s21.547 14.282 34.48 14.282h447.147c10.089 28.534 28.779 53.235 53.492 70.702 24.717 17.467 54.238 26.838 84.504 26.822zM633.905 862.476c-12.932 0-25.337-5.138-34.48-14.282s-14.282-21.547-14.282-34.48c0-12.933 5.14-25.335 14.282-34.48s21.548-14.282 34.48-14.282c12.932 0 25.337 5.138 34.48 14.282s14.282 21.547 14.282 34.48c0 12.933-5.14 25.335-14.282 34.48s-21.548 14.282-34.48 14.282z" />
<glyph unicode="&#xe911;" glyph-name="menu" d="M85.3 448.008c0 23.564 19.102 42.667 42.666 42.667h767.997c23.567 0 42.67-19.103 42.67-42.667 0-23.565-19.103-42.668-42.67-42.668h-767.997c-23.564 0-42.666 19.103-42.666 42.668zM85.3 704.008c0 23.564 19.102 42.667 42.666 42.667h767.997c23.567 0 42.67-19.103 42.67-42.667s-19.103-42.666-42.67-42.666h-767.997c-23.564 0-42.666 19.103-42.666 42.666zM85.3 192.010c0 23.562 19.102 42.665 42.666 42.665h767.997c23.567 0 42.67-19.103 42.67-42.665 0-23.567-19.103-42.67-42.67-42.67h-767.997c-23.564 0-42.666 19.103-42.666 42.67z" />
<glyph unicode="&#xe912;" glyph-name="menu-cat" d="M298.7 704.008c0 23.564 19.103 42.667 42.667 42.667h554.669c23.562 0 42.665-19.103 42.665-42.667s-19.103-42.666-42.665-42.666h-554.669c-23.564 0-42.667 19.103-42.667 42.666zM298.7 448.008c0 23.564 19.103 42.667 42.667 42.667h554.669c23.562 0 42.665-19.103 42.665-42.667 0-23.565-19.103-42.668-42.665-42.668h-554.669c-23.564 0-42.667 19.103-42.667 42.668zM298.7 192.010c0 23.562 19.103 42.665 42.667 42.665h554.669c23.562 0 42.665-19.103 42.665-42.665 0-23.567-19.103-42.67-42.665-42.67h-554.669c-23.564 0-42.667 19.103-42.667 42.67zM85.3 704.008c0 23.564 19.102 42.667 42.666 42.667h0.426c23.564 0 42.667-19.103 42.667-42.667s-19.103-42.666-42.667-42.666h-0.426c-23.564 0-42.666 19.103-42.666 42.666zM85.3 448.008c0 23.564 19.102 42.667 42.666 42.667h0.426c23.564 0 42.667-19.103 42.667-42.667 0-23.565-19.103-42.668-42.667-42.668h-0.426c-23.564 0-42.666 19.103-42.666 42.668zM85.3 192.010c0 23.562 19.102 42.665 42.666 42.665h0.426c23.564 0 42.667-19.103 42.667-42.665 0-23.567-19.103-42.67-42.667-42.67h-0.426c-23.564 0-42.666 19.103-42.666 42.67z" />
<glyph unicode="&#xe913;" glyph-name="del" d="M170.667 448c0 23.564 19.103 42.667 42.667 42.667h597.333c23.564 0 42.667-19.103 42.667-42.667s-19.103-42.667-42.667-42.667h-597.333c-23.564 0-42.667 19.103-42.667 42.667z" />
<glyph unicode="&#xe914;" glyph-name="add" d="M512 789.333c23.564 0 42.667-19.103 42.667-42.667v-597.333c0-23.564-19.103-42.667-42.667-42.667s-42.667 19.103-42.667 42.667v597.333c0 23.564 19.103 42.667 42.667 42.667zM170.667 448c0 23.564 19.103 42.667 42.667 42.667h597.333c23.564 0 42.667-19.103 42.667-42.667s-19.103-42.667-42.667-42.667h-597.333c-23.564 0-42.667 19.103-42.667 42.667z" />
<glyph unicode="&#xe915;" glyph-name="busket" d="M298.687 64.013c0 47.123 38.205 85.331 85.334 85.331s85.333-38.208 85.333-85.331c0-47.13-38.205-85.338-85.333-85.338s-85.334 38.208-85.334 85.338zM768 64.013c0 47.123 38.208 85.331 85.331 85.331 47.13 0 85.338-38.208 85.338-85.331 0-47.13-38.208-85.338-85.338-85.338-47.123 0-85.331 38.208-85.331 85.338zM0 917.333c0 23.564 19.103 42.667 42.667 42.667h170.666c20.336 0 37.846-14.352 41.837-34.293l35.834-179.040h690.326c12.717 0 24.768-5.672 32.877-15.469 8.102-9.797 11.418-22.7 9.037-35.19l-68.326-358.293c-5.856-29.464-21.882-55.935-45.286-74.77-23.283-18.746-52.39-28.742-82.266-28.275h-413.984c-29.878-0.467-58.984 9.53-82.269 28.275-23.391 18.829-39.417 45.286-45.276 74.734-0.003 0.012 0.003-0.012 0 0l-71.276 356.116c-0.289 1.178-0.53 2.375-0.719 3.59l-35.483 177.283h-135.694c-23.564 0-42.667 19.102-42.667 42.666zM308.084 661.333l61.444-306.995c1.951-9.821 7.294-18.644 15.094-24.924s17.561-9.613 27.572-9.421l0.817 0.006 415.537-0.006c10.010-0.192 19.77 3.142 27.571 9.421 7.763 6.25 13.094 15.020 15.066 24.787l58.573 307.132h-621.676z" />
<glyph unicode="&#xe916;" glyph-name="busket-kol" d="M320 85.325c0 35.348 28.654 64 64 64s64-28.652 64-64c0-35.348-28.654-64-64-64s-64 28.652-64 64zM672 85.325c0 35.348 28.652 64 64 64s64-28.652 64-64c0-35.348-28.652-64-64-64s-64 28.652-64 64zM96 725.325c0 17.673 14.327 32 32 32h128c15.252 0 28.384-10.764 31.378-25.72l26.876-134.28h517.746c9.539 0 18.575-4.254 24.658-11.601 6.077-7.348 8.561-17.025 6.774-26.393l-51.246-268.719c-4.388-22.098-16.41-41.948-33.961-56.079-17.464-14.060-39.291-21.56-61.701-21.207h-310.487c-22.409-0.353-44.238 7.148-61.701 21.207-17.544 14.121-29.563 33.966-33.957 56.054l-53.457 267.085c-0.217 0.884-0.397 1.782-0.539 2.692l-26.612 132.962h-101.77c-17.673 0-32 14.327-32 32zM327.064 533.325l46.083-230.246c1.463-7.368 5.471-13.983 11.321-18.693s13.171-7.209 20.679-7.066l0.613 0.005 311.654-0.005c7.506-0.143 14.828 2.355 20.68 7.066 5.821 4.69 9.82 11.264 11.3 18.591l43.924 230.349h-466.255zM682.65 874.675c141.385 0 256-114.615 256-256v-42.665c0-141.385-114.615-256-256-256s-256 114.615-256 256v42.665c0 141.385 114.615 256 256 256zM554.301 564v123.5c0 38.333 10.834 69.167 32.497 92.5 21.668 23.5 51.671 35.25 90.004 35.25 37.996 0 67.83-11.75 89.498-35.25 21.832-23.333 32.748-54.167 32.748-92.5v-123.5c0-38.333-10.916-69.25-32.748-92.75-21.668-23.332-51.502-35-89.498-35-38.333 0-68.337 11.668-90.004 35-21.663 23.5-32.497 54.417-32.497 92.75zM605.051 561.5c0-24.333 5.832-44.334 17.5-60 11.663-15.5 29.747-23.25 54.252-23.25 24.33 0 42.332 7.75 53.996 23.25 11.668 15.667 17.5 35.667 17.5 60v128.5c0 24.167-5.832 44.084-17.5 59.75-11.663 15.667-29.665 23.5-53.996 23.5-24.504 0-42.588-7.834-54.252-23.5-11.668-15.666-17.5-35.583-17.5-59.75v-128.5z" />
<glyph unicode="&#xe917;" glyph-name="end" d="M512.048 831.988c-212.077 0-384-171.923-384-384s171.923-384.003 384-384.003c212.078 0 384.004 171.925 384.004 384.003s-171.926 384-384.004 384zM42.714 447.988c0 259.205 210.127 469.333 469.333 469.333s469.332-210.128 469.332-469.333c0-259.207-210.125-469.331-469.332-469.331s-469.333 210.125-469.333 469.331zM670.122 606.182c16.662-16.662 16.662-43.677 0-60.34l-256-256c-16.663-16.662-43.677-16.662-60.34 0s-16.663 43.678 0 60.34l256 256c16.663 16.663 43.677 16.663 60.34 0zM353.782 606.182c16.663 16.663 43.677 16.663 60.34 0l256-256c16.662-16.662 16.662-43.677 0-60.34s-43.677-16.662-60.34 0l-256 256c-16.663 16.663-16.663 43.678 0 60.34z" />
<glyph unicode="&#xe918;" glyph-name="busket-red" d="M320 85.328c0 35.347 28.653 64 64 64s64-28.653 64-64c0-35.347-28.653-64-64-64s-64 28.653-64 64zM672 85.328c0 35.347 28.653 64 64 64s64-28.653 64-64c0-35.347-28.653-64-64-64s-64 28.653-64 64zM96 725.328c0 17.673 14.327 32 32 32h128c15.252 0 28.384-10.764 31.378-25.72l26.876-134.28h517.746c9.536 0 18.576-4.253 24.656-11.603 6.080-7.347 8.563-17.024 6.778-26.39l-51.245-268.72c-4.39-22.099-16.413-41.952-33.965-56.080-17.462-14.058-39.293-21.558-61.699-21.206h-310.49c-22.406-0.352-44.237 7.149-61.699 21.206-17.546 14.125-29.564 33.965-33.957 56.051v0l-53.457 267.088c-0.217 0.883-0.397 1.782-0.539 2.691l-26.612 132.963h-101.77c-17.673 0-32 14.327-32 32zM327.062 533.328l46.083-230.246c1.466-7.366 5.472-13.984 11.322-18.691 5.85-4.71 13.171-7.213 20.678-7.069l0.614 0.006 311.654-0.006c7.507-0.144 14.829 2.358 20.678 7.069 5.824 4.688 9.821 11.264 11.299 18.589l43.93 230.349h-466.259z" />
<glyph unicode="&#xe919;" glyph-name="close" d="M798.17 734.17c16.661-16.663 16.661-43.677 0-60.34l-512-512c-16.663-16.661-43.677-16.661-60.34 0s-16.662 43.678 0 60.339l512 512c16.661 16.662 43.678 16.662 60.339 0zM225.83 734.17c16.663 16.662 43.677 16.662 60.34 0l512-512c16.661-16.661 16.661-43.678 0-60.339s-43.678-16.661-60.339 0l-512 512c-16.662 16.663-16.662 43.677 0 60.34z" />
<glyph unicode="&#xe91a;" glyph-name="rub" horiz-adv-x="819" d="M32.973 457.83h113.254v471.654c40.141 7.646 81.715 13.38 124.723 17.203 43.008 4.779 88.405 7.168 136.192 7.168 49.698 0 97.485-4.301 143.36-12.902s86.016-24.371 120.422-47.309c34.406-22.938 61.645-54.477 81.715-94.618 21.026-40.141 31.539-91.75 31.539-154.829 0-58.299-10.035-107.52-30.106-147.661s-46.831-73.114-80.282-98.918c-33.451-24.849-71.68-43.008-114.688-54.477-43.008-10.513-87.928-15.77-134.758-15.77h-97.485v-83.149h229.376v-130.458h-229.376v-177.766h-180.634v177.766h-113.254v130.458h113.254v83.149h-113.254v130.458zM326.861 462.131h74.547c25.805 0 50.176 2.867 73.114 8.602 23.893 6.69 44.442 16.725 61.645 30.106s30.584 31.061 40.141 53.043c10.513 22.938 15.77 50.176 15.77 81.715 0 58.299-15.77 99.397-47.309 123.29-31.539 24.849-72.158 37.274-121.856 37.274-19.115 0-37.274-0.955-54.477-2.867-17.203-0.955-31.061-2.389-41.574-4.301v-326.861z" />
<glyph unicode="&#xe91b;" glyph-name="email" d="M170.687 746.667c-23.369 0-42.666-19.298-42.666-42.667v-512c0-23.366 19.297-42.669 42.666-42.669h682.669c23.366 0 42.662 19.302 42.662 42.669v512c0 23.369-19.296 42.667-42.662 42.667h-682.669zM42.687 704c0 70.497 57.503 128 128 128h682.669c70.496 0 128-57.503 128-128v-512c0-70.496-57.504-128-128-128h-682.669c-70.497 0-128 57.504-128 128v512zM50.404 728.454c13.513 19.304 40.117 23.999 59.421 10.486l402.199-281.539 402.196 281.539c19.309 13.514 45.914 8.819 59.424-10.486s8.819-45.908-10.483-59.421l-426.669-298.667c-14.691-10.284-34.244-10.284-48.936 0l-426.666 298.667c-19.305 13.513-23.999 40.117-10.486 59.421z" />
<glyph unicode="&#xe91c;" glyph-name="checked" d="M968.836 819.503c16.661-16.663 16.661-43.677 0-60.34l-426.667-426.666c-16.661-16.661-43.678-16.661-60.339 0l-128 128c-16.662 16.661-16.662 43.678 0 60.339 16.663 16.663 43.677 16.663 60.34 0l97.83-97.83 396.497 396.497c16.661 16.662 43.678 16.662 60.339 0zM213.333 789.333c-11.316 0-22.168-4.495-30.17-12.497s-12.497-18.854-12.497-30.17v-597.333c0-11.315 4.495-22.17 12.497-30.17s18.854-12.497 30.17-12.497h597.333c11.315 0 22.17 4.497 30.17 12.497s12.497 18.854 12.497 30.17v298.667c0 23.565 19.102 42.667 42.667 42.667s42.667-19.102 42.667-42.667v-298.667c0-33.95-13.487-66.505-37.491-90.509s-56.559-37.491-90.509-37.491h-597.333c-33.948 0-66.505 13.487-90.51 37.491s-37.49 56.559-37.49 90.509v597.333c0 33.948 13.486 66.505 37.49 90.51s56.562 37.49 90.51 37.49h469.333c23.565 0 42.667-19.103 42.667-42.667s-19.102-42.667-42.667-42.667h-469.333z" />
<glyph unicode="&#xe91d;" glyph-name="Group1" d="M485.506 946.291c12.622 0.774 81.761 2.778 87.696-3.191 8.42-8.469 9.032-27.864 10.648-39.106 0.92-6.405 1.145-12.12 6.368-16.639 11.546-4.452 39.597 21.933 53.455 27.159 4.048-2.127 7.899-3.993 11.479-6.919 9.032-7.386 47.53-44.429 53.219-52.745 12.637-18.487-22.24-42.449-25.562-60.473 6.019-14.837 45.365-5.095 57.879-18.59 6.917-7.458 4.048-24.884 3.734-34.48 38.112-0.541 85.113 7.853 114.887-21.262 5.097-5.036 9.454-10.648 13.076-16.829 19.406-32.927 35.341-69.227 52.602-103.386 10.641-21.051 26.781-46.834 33.993-68.777 2.637-8.029 1.758-18.612 1.814-27.013l0.084-337.943-0.031-100.342c-0.006-17.159 1.542-36.143-1.039-53.045-2.361-15.504-10.2-30.062-21.211-41.121-10.344-10.382-23.84-18.302-38.333-20.954-14.762-2.704-30.881-1.64-45.869-1.62l-66.696 0.117-610.832-0.134c-16.179-0.004-33.715-1.172-49.676 1.544-14.863 2.524-29.508 9.975-40.211 20.603-10.6 10.526-18.298 23.834-20.89 38.638-2.833 16.185-1.223 34.826-1.23 51.317l-0.017 94.202-0.062 339.788c-0.002 10.453-1.358 24.371 1.505 34.386 5.58 19.515 24.412 50.694 34.065 69.841 17.402 34.513 33.493 71.26 53.117 104.502 3.792 6.299 8.304 12.027 13.537 17.191 7.873 7.81 16.666 13.107 27.315 16.265 26.319 7.803 83.514 3.893 113.268 3.893-0.897 10.319-1.582 24.141 3.851 33.264 9.066 15.222 34.538 8.051 49.058 12.185 3.112 0.886 7.043 2.951 8.535 5.954 3.958 7.965-24.509 39.030-27.579 49.218-1.225 4.058 0.113 7.369 2.138 10.892 5.912 10.281 52.337 57.674 61.509 59.921 14.944 3.66 33.61-18.016 45.637-25.285 3.833-2.317 6.662-3.052 11.013-1.956 11.291 8.839 6.786 38.514 13.416 52.216 2.476 5.114 5.011 6.945 10.34 8.714zM916.271-7.998c5.601 6.073 11.425 12.48 12.844 20.933 3.158 18.754 1.902 38.952 1.877 57.94l-0.127 86.306 0.015 227.886c0.010 41.357-0.729 82.881 0.222 124.222-72.512 1.438-145.235 0.351-217.767 0.316h-538.166c-26.576 0.008-53.756-1.285-80.224 0.32l-0.091-332.685-0.153-100.388c-0.031-19.448-1.25-39.842 1.224-59.145 1.251-9.759 4.749-17.452 11.716-24.476 16.456-16.593 39.879-13.607 61.332-13.59l640.807 0.077c26.463-0.063 54.289-1.985 80.562 0.631 10.775 1.076 18.002 4.485 25.932 11.653zM491.027 866.080c-10.167-7.137-24.716-16.026-37.627-13.783-14.261 2.477-30.921 18.424-42.49 27.082-11.858-11.682-25.192-23.427-35.455-36.519 10.351-13.886 29.042-32.87 26.29-51.179-1.473-9.791-7.795-21.259-14.47-28.507-14.952-5.681-32.574-8.583-48.51-10.049-1.041-16.564-0.761-33.19-0.702-49.779 16.098-2.418 33.926-4.435 49.123-10.363 7.576-7.272 14.633-21.067 14.942-31.667 0.499-17.226-17.726-34.588-26.515-48.59 6.704-6.936 27.727-32.937 37.334-32.902 16.271 0.063 29.995 46.742 78.545 10.058 4.656-15.91 6.85-32.576 9.172-48.96 16.378-0.533 32.758-0.702 49.142-0.51 2.33 2.683 2.848 6.543 3.678 9.906 2.32 9.412 1.933 18.674 3.76 28.001 3.394 17.306 25.069 24.653 40.469 27.667 15.753-7.824 28.787-20.215 44.325-28.037 11.548 11.563 24.766 22.99 35.109 35.568-10.236 13.638-22.359 28.018-29.301 43.693 4.587 11.58 8.708 25.845 16.202 35.871 16.273 4.892 33.086 7.191 49.823 9.941 0.222 16.727 0.788 33.541 0.299 50.261-17.092 2.977-44.45 2.652-55.029 17.875-5.304 7.634-7.983 18.774-11.028 27.556 7.797 16.477 19.592 29.369 28.86 44.751-11.759 11.93-23.65 24.005-36.093 35.208-12.687-9.376-32.887-29.205-49.706-26.606-9.504 1.469-23.099 8.27-30.902 14.002-1.718 9.664-4.073 42.486-11.371 47.668-7.406 5.259-37.384 1.809-47.71 2.092-3.837-16.304-3.762-34.18-10.163-49.752zM307.802 710.019c-24.752 0.679-49.488 0.092-74.236 0.47l0.097-109.984c0.012-19.757 1.126-40.287-0.523-59.946 79.286-1.373 158.812-0.516 238.109-0.412-2.909 8.957-1.718 26.028-9.452 31.502-4.905 0.403-7.768-1.003-11.745-3.977-12.652-9.172-25.514-19.932-40.312-25.37-3.705 1.346-7.91 2.744-11.059 5.147-10.794 8.232-50.897 47.332-56.414 58.782-1.889 3.923-1.298 6.405 0.155 10.336 4.485 12.133 31.288 36.904 26.578 47.952-14.7 12.102-59.538 0.642-61.54 25.489-0.529 6.552 0.079 13.446 0.343 20.010zM644.541 542.014c-4.136 1.413-8.359 2.974-12.102 5.243-8.437 5.107-34.344 26.864-43.154 22.99-3.847-6.961-4.696-16.511-6.192-24.311l-0.591-3.431c2.33-1.994 4.171-2.115 7.227-2.32 17.987-1.202 36.312 0.468 54.345 0.539 49.185 0.196 99.169 0.94 148.279-0.767-1.833 19.776-0.587 40.492-0.531 60.366l0.134 109.627c-15.621 0.282-31.42-0.173-47.006 0.575-0.107-11.132 1.070-23.757-7.555-32.329-11.837-11.768-50.469-1.86-54.69-16.539 2.848-20.476 40.304-40.101 23.7-61.95-6.136-8.073-43.163-45.060-51.428-51.75-3.097-2.504-6.836-4.284-10.436-5.943zM110.015 540.264l94.016-0.050c-1.005 38.849-0.24 77.883-0.209 116.751 0.012 14.735 1.563 31.115 0.018 45.593-0.149 1.392-0.849 2.547-1.76 3.584l-3.015 0.575c-7.592-4.437-12.92-8.919-17.895-16.225-7.994-11.743-13.891-25.272-20.234-37.972l-30.872-61.833c-5.906-11.709-20.826-35.432-23.593-47.002-0.214-0.897-0.081-1.494 0.074-2.382 1.056-0.347 2.375-0.972 3.469-1.039zM821.695 540.4l96.139-0.205 1.415 2.242c-11.063 27.462-26.854 54.487-40.206 80.998-10.292 20.436-23.859 53.321-36.935 70.462-5.087 6.669-11.715 10.656-19.061 14.401-1.852-17.433-1.053-35.487-1.053-53.022-0.006-38.183 1.187-76.737-0.299-114.876zM402.597 440.604c46.241 1.778 93.077 0.207 139.381 0.19 27.289-0.010 57.246 2.813 84.164-0.79 10.614-1.417 20.584-4.731 29.362-11.109 12.186-8.846 19.861-22.033 22.283-37.046 2.66-16.501-0.535-33.353-10.234-46.949-10.714-15.032-25.276-22.229-42.872-24.994-48.235-1.122-96.624-0.067-144.879-0.161-25.581-0.050-56.040-3.112-81.088 0.832-11.007 1.739-21.168 6.012-29.926 13.095-1.492 1.2-2.924 2.472-4.29 3.816-1.369 1.344-2.669 2.754-3.9 4.234-1.231 1.475-2.387 3.009-3.467 4.606s-2.081 3.241-3.003 4.936c-0.92 1.699-1.755 3.44-2.506 5.222-0.752 1.781-1.413 3.597-1.987 5.448-0.573 1.847-1.055 3.72-1.446 5.619s-0.69 3.814-0.892 5.743c-0.211 2.054-0.324 4.113-0.336 6.173-0.013 2.065 0.073 4.123 0.257 6.177 0.184 2.056 0.466 4.1 0.846 6.125 0.38 2.027 0.855 4.029 1.427 6.008 0.573 1.977 1.237 3.923 1.996 5.835 0.759 1.914 1.607 3.783 2.545 5.609s1.962 3.605 3.070 5.331c1.108 1.722 2.297 3.388 3.565 4.993 10.986 13.87 25.048 19.251 41.93 21.057zM627.417 351.978c9.258 3.154 14.532 7.258 18.957 16.403 3.381 6.995 4.338 13.408 1.902 20.988-2.332 7.262-7.429 14.19-14.265 17.561-5.308 2.616-11.866 3.199-17.686 3.546-40.429 2.389-82.198 0.171-122.738 0.113-30.889-0.040-64.052 2.736-94.62-0.982-8.353-2.761-14.472-6.689-18.725-14.94-0.479-0.913-0.909-1.849-1.296-2.811-0.387-0.959-0.723-1.935-1.014-2.932-0.288-0.993-0.529-1.998-0.717-3.018-0.19-1.022-0.33-2.048-0.418-3.082s-0.125-2.069-0.111-3.105c0.013-1.039 0.079-2.073 0.194-3.103 0.117-1.030 0.282-2.052 0.499-3.066 0.217-1.011 0.485-2.012 0.8-2.997 0.259-0.828 0.558-1.638 0.897-2.435s0.715-1.574 1.128-2.332c0.412-0.759 0.861-1.494 1.346-2.207 0.483-0.715 1.001-1.402 1.553-2.063 0.55-0.662 1.131-1.294 1.743-1.893 0.61-0.602 1.25-1.172 1.916-1.712 0.667-0.537 1.358-1.041 2.073-1.509 0.717-0.468 1.452-0.899 2.209-1.291 6.094-3.101 13.46-3.81 20.171-4.24 38.49-2.445 78.242 0 116.861-0.025 28.988-0.015 72.43-2.972 99.338 1.133zM260.762 133.555c0.416 0.019 0.832 0.036 1.248 0.050 6.337 0.217 12.471-0.146 17.296-4.307 8.159-13.333 7.49-66.326 2.896-81.632-1.732-5.776-4.526-9.35-10.104-12.34-3.641-0.366-7.424-0.479-11.031 0.222-3.147 0.61-5.45 2.28-7.046 4.788-7.296 11.465-6.056 69.208-2.317 82.651 1.555 5.592 3.763 7.598 9.058 10.568zM417.606 133.651c0.608 0.006 1.191-0.004 1.799-0.059 3.544-0.326 7.782-0.479 10.186-4.614 4.984-8.574 3.385-66.382 1.989-78.675-0.815-7.172-2.424-10.976-6.694-15.241-2.761-0.119-5.323 0.142-8 1.147-2.075 0.782-4.363 2.449-5.383 5.189-3.737 10.008-3.964 70.942-1.363 82.196 1.216 5.27 4.056 7.634 7.465 10.056zM188.433 133.653c2.77-0.059 5.539-0.173 8.255-0.717 4.509-0.894 8.407-2.416 10.858-6.171 6.218-9.523 4.891-68.416 1.001-80.196-1.934-5.858-4.979-8.437-10.758-11.285-3.601-0.37-8.309-0.441-11.754 0.602-2.955 0.89-5.655 2.786-6.977 5.39-5.506 10.863-5.297 73.73-0.219 84.848 2.046 4.478 4.814 5.684 9.594 7.53zM343.487 133.63c2.416 0.136 5.055-0.33 7.408-1.037 2.201-0.656 4.399-2.403 5.55-5.11 4.188-9.853 3.149-68.104 0.874-80.332-1.122-6.027-3.321-9.032-7.151-12.039-2.065-0.201-4.554-0.031-6.556 0.738-2.178 0.836-3.927 3.354-5.026 5.985-5.283 12.668-4.441 66.382-1.588 80.771 1.11 5.603 2.922 8.127 6.489 11.024zM517.327 811.542c2.725 0.168 5.419 0.171 8.127-0.177 5.135-0.658 10.464-3.481 13.496-7.822 1.875-2.68 2.412-5.312 1.916-8.513-2.025-13.017-35.522-16.797-47.273-25.495-9.346-6.915-15.761-16.155-17.431-27.923-1.95-13.742 1.58-29.466 9.954-40.596 7.578-10.071 20.256-16.743 32.636-18.325 21.985-2.809 43.984 10.457 52.381 31.128 3.711 9.132 0.7 23.216 9.435 29.723 3.3 2.462 7.047 3.239 11.065 2.522 4.092-0.729 8.424-2.071 10.756-5.701 5.11-7.956 1.446-20.653-0.219-29.27-3.057-9.916-7.546-19.629-13.736-27.961-1.523-2.088-3.149-4.094-4.875-6.017-1.724-1.925-3.54-3.755-5.448-5.496-1.91-1.741-3.9-3.379-5.971-4.919-2.071-1.538-4.213-2.97-6.43-4.292-2.213-1.323-4.487-2.531-6.821-3.624s-4.719-2.067-7.151-2.919c-2.433-0.851-4.901-1.58-7.406-2.182-2.504-0.604-5.032-1.080-7.582-1.427-20.929-3.018-42.511 1.958-59.398 14.909-16.936 12.988-28.382 31.723-31.232 53.022-0.385 2.679-0.635 5.369-0.754 8.071-0.119 2.704-0.104 5.406 0.044 8.106 0.148 2.702 0.428 5.39 0.842 8.062 0.414 2.675 0.957 5.321 1.632 7.939s1.477 5.198 2.407 7.737c0.928 2.539 1.981 5.025 3.156 7.458s2.466 4.803 3.874 7.107c1.409 2.304 2.928 4.533 4.556 6.686 14.294 18.639 32.672 27.184 55.451 30.19z" />
<glyph unicode="&#xe91e;" glyph-name="Group2" d="M445.516 943.085h13.582c7.843-5.845 10.735-9.766 12.336-19.841 3.094-19.465 0.37-48.039 0.037-68.56-0.113-6.884-1.096-14.814 0.403-21.542 0.874-3.913 2.431-6.381 5.591-8.79 11.238-8.571 27.763-17.771 40.823-22.754 15.199 6.684 29.435 17.071 43.932 25.284 1.787 25.782-2.815 81.93 2.377 102.054 1.277 4.962 3.323 8.202 7.083 11.544 1.013 0.913 2.059 1.782 3.14 2.606h13.589c11.201-7.663 23.454-13.461 34.48-21.519 31.853-23.274 55.908-61.977 63.538-101.146 9.972-51.218-2.116-92.046-29.768-134.329l-3.93-5.957c3.697-15.153 7.578-30.483 21.713-38.988 30.374-18.277 79.602 20.877 120.847 5.837 6.392-2.329 47.568-27.441 45.394-43.829-0.863-6.497-8.34-15.016-14.804-15.016-7.401 0-14.804 7.508-33.681 19.297-6.639 4.146-12.517 4.519-19.452 4.554-18.020 0.089-36.62-7.647-54.13-11.743-41.296-9.654-76.144 4.048-94.807 44.315-1.078 2.344-2.142 4.695-3.194 7.053-2.623-4.961-5.554-10.068-6.832-15.597-5.231-22.598-1.824-75.345-1.926-101.361 41.91-24.023 77.512-66.072 90.748-113.86 14.95-53.989 11.632-106.468-15.447-156.029-1.584-2.898-3.235-5.756-4.959-8.571s-3.51-5.584-5.362-8.307c-1.852-2.728-3.767-5.405-5.747-8.035-1.98-2.632-4.024-5.209-6.127-7.739-2.102-2.527-4.264-5-6.484-7.419-2.222-2.418-4.501-4.782-6.832-7.087-2.331-2.307-4.719-4.554-7.161-6.741-2.438-2.183-4.928-4.305-7.471-6.366-2.538-2.061-5.129-4.059-7.767-5.991-2.634-1.933-5.314-3.795-8.037-5.593-2.726-1.8-5.49-3.53-8.299-5.185-2.806-1.662-5.652-3.251-8.534-4.765-2.88-1.519-5.798-2.963-8.75-4.333-2.95-1.37-5.933-2.667-8.946-3.891-3.013-1.22-6.055-2.366-9.122-3.434-3.068-1.070-6.157-2.061-9.27-2.978-3.013-0.861-6.044-1.643-9.092-2.349-3.052-0.704-6.118-1.331-9.199-1.88-3.076-0.553-6.168-1.026-9.27-1.418-3.105-0.394-6.216-0.708-9.334-0.943s-6.238-0.39-9.364-0.466c-3.126-0.081-6.253-0.081-9.379 0-3.124 0.083-6.246 0.242-9.364 0.481-3.118 0.237-6.229 0.556-9.331 0.952s-6.194 0.874-9.273 1.429c-3.081 0.553-6.144 1.183-9.194 1.891-3.048 0.708-6.079 1.495-9.090 2.357s-6 1.797-8.968 2.815c-2.965 1.011-5.907 2.1-8.819 3.264s-5.798 2.399-8.652 3.708c-2.854 1.307-5.676 2.686-8.464 4.14-2.787 1.453-5.538 2.974-8.253 4.567-2.841 1.643-5.641 3.36-8.401 5.146-2.758 1.791-5.473 3.645-8.144 5.569-2.669 1.926-5.292 3.917-7.865 5.974-2.575 2.059-5.098 4.179-7.569 6.364-2.473 2.187-4.891 4.434-7.255 6.739-2.364 2.309-4.669 4.676-6.92 7.098-2.251 2.425-4.44 4.906-6.571 7.445-2.131 2.534-4.198 5.122-6.205 7.761-2.004 2.641-3.948 5.329-5.824 8.066-1.876 2.741-3.686 5.525-5.429 8.353-1.741 2.832-3.414 5.706-5.020 8.621-1.604 2.915-3.137 5.867-4.599 8.859-1.462 2.994-2.852 6.022-4.168 9.083-1.316 3.063-2.558 6.159-3.725 9.286-1.167 3.122-2.259 6.277-3.274 9.458s-1.954 6.386-2.816 9.615c-0.803 3.096-1.532 6.212-2.186 9.345s-1.233 6.281-1.738 9.44c-0.505 3.164-0.933 6.336-1.287 9.519s-0.631 6.375-0.832 9.573c-0.201 3.196-0.326 6.397-0.375 9.599-0.049 3.205-0.022 6.41 0.082 9.613 0.104 3.201 0.284 6.399 0.54 9.595 0.256 3.192 0.588 6.377 0.996 9.554s0.892 6.34 1.45 9.493c0.559 3.155 1.192 6.29 1.901 9.41 0.708 3.122 1.49 6.22 2.346 9.301 0.856 3.085 1.784 6.144 2.786 9.177 1.002 3.035 2.075 6.042 3.22 9.024 1.145 2.98 2.36 5.933 3.645 8.854 1.285 2.917 2.641 5.802 4.063 8.656 1.423 2.852 2.913 5.667 4.471 8.445 18.051 32.487 43.37 57.257 74.676 76.112-0.427 25.236 2.911 79.992-2.144 100.664-1.368 5.601-4.244 10.589-7.253 15.41-8.935-21.195-22.916-40.241-44.485-48.954-48.12-19.436-101.874 29.387-131.826-0.876-13.21-13.347-21.909-34.633-30.962-51.135-10.105-18.421-22.403-36.254-30.665-55.618-3.943-9.24-4.622-17.992-0.939-27.539 13.016-33.738 54.393-45.991 63.767-92.411 2.965-14.68 1.283-28.979-4.334-42.786-15.318-37.67-74.724-64.464-58.322-105.474 8.804-22.012 23.512-43.302 35.239-63.889 7.327-12.861 13.459-27.343 22.63-38.901 4.115-5.188 9.218-9.36 15.291-11.891 35.252-14.722 80.971 33.729 131.927 0.8 13.057-8.438 22.909-20.696 29.049-35.169 10.018-23.604 13.107-73.449 38.487-83.94 12.8-5.296 106.696-4.859 121.721-3.46 5.425 0.505 10.802 1.553 15.789 3.867 10.482 4.863 17.232 14.214 21.084 25.053 13.075 36.786 13.427 78.203 52.834 97.4 51.965 25.31 106.091-27.347 137.111 3.137 11.604 11.399 19.24 30.565 27.238 44.816 11.767 20.968 27.533 43.132 35.633 65.843 3.183 8.935 2.699 17.818-1.283 26.415-5.192 11.201-14.347 19.955-22.702 28.676-27.533 28.74-51.723 57.252-37.21 100.258 12.362 36.646 54.372 54.425 62.477 87.526 1.462 5.978 0.954 13.125 0.935 19.286 4.201 5.872-14.216 50.96 0.588 58.468 10.101 5.122 17.136 0.207 22.206-7.508 14.804-22.524 15.059-65.253 13.972-73.891-0.381-3.129-0.952-6.22-1.715-9.275-0.765-3.055-1.712-6.048-2.845-8.981-1.129-2.93-2.434-5.778-3.92-8.541-1.484-2.76-3.131-5.414-4.944-7.961-19.907-28.576-74.393-58.743-43.646-99.524 25.983-34.463 63.068-51.065 57.126-102.11-0.978-8.408-3.294-16.377-6.58-24.125-7.497-17.709-18.8-34.735-28.201-51.481-9.715-17.316-18.687-36.186-30.005-52.424-4.93-7.079-10.467-13.495-17.173-18.85-17.105-13.648-36.711-17.787-57.987-15.018-25.724 3.355-64.991 25.119-88.038 6.517-25.959-20.955-17.796-75.876-50.047-106.572-12.373-11.778-25.108-12.369-36.001-20.378h-135.297c-7.615 4.055-15.787 6.874-23.336 11.216-29.079 16.73-35.128 43.422-43.104 74.192-2.819 10.881-5.283 22.291-11.323 31.853-25.624 40.544-80.056-6.198-124.976 3.826-22.216 4.959-38.377 19.301-50.256 38.52-10.929 17.683-20.774 36.295-30.989 54.429-21.159 37.557-44.658 72.238-20.935 116.161 7.657 14.175 21.277 26.020 32.274 37.5 9.565 9.985 20.735 20.412 23.659 34.687 6.98 34.062-37.826 59.294-54.118 84.445-11.052 17.059-13.724 39.426-9.695 59.285 4.065 20.031 51.738 103.794 65.437 122.584 5.258 7.212 11.853 14.674 19.27 19.602 35.7 23.722 68.779 5.957 105.065-1.61 12.041-2.512 24.146-2.44 34.722 4.917 13.26 9.225 17.375 24.001 20.301 39.269-2.991 3.856-5.991 7.734-8.739 11.778-24.489 36.045-32.86 80.423-25.369 123.492 6.859 39.443 29.988 80.135 61.911 103.893 11.467 8.532 24.386 14.339 35.923 22.57zM517.791 758.135c-14.674 4.396-63.852 33.18-76.595 43.624-2.976 2.44-5.079 5.301-7.074 8.604-0.436 14.299 1.628 69.84-1.105 77.541l-0.983 0.819c-26.89-23.766-46.163-53.561-48.843-90.752-2.466-34.235 7.053-67.075 29.228-93.128 15.493-18.199 36.589-30.7 44.348-54.801 7.447-23.136 3.798-119.49 3.802-150.129l0.094-289.215c12.432-4.085 24.683-7.669 37.526-10.205 1.712 35.786 0.682 71.97 0.678 107.808l-0.033 186.98c-0.009 31.164-2.238 72.95 0.418 103.045 0.486 5.499 1.116 11.196 5.316 15.114 4.089 3.815 9.924 4.893 15.284 4.543 4.166-0.272 8.070-1.865 10.852-5.135 3.373-3.959 4.645-9.225 5.188-14.336 1.858-17.571 0.048-37.189 0.052-55.021l-0.004-125.867-0.020-136.504c0.007-26.77-0.702-53.775 0.586-80.515 12.896 2.44 25.258 5.904 37.805 9.78l-0.028 297.738-0.115 77.811c-0.054 17.791-1.362 36.585 1.601 54.137 2.525 14.992 9.667 27.613 20.062 38.343 7.867 8.124 16.682 15.34 24.232 23.779 1.283 1.429 2.534 2.887 3.75 4.375s2.399 3.004 3.547 4.551c1.146 1.545 2.257 3.116 3.333 4.715 1.074 1.597 2.111 3.22 3.111 4.869 1.004 1.647 1.97 3.32 2.896 5.013 0.922 1.695 1.806 3.412 2.656 5.148 0.845 1.736 1.651 3.492 2.418 5.268 0.769 1.778 1.495 3.571 2.179 5.381s1.327 3.636 1.93 5.478c0.599 1.842 1.157 3.697 1.673 5.565 0.521 1.868 0.993 3.748 1.423 5.639 0.434 1.891 0.819 3.792 1.161 5.702 0.346 1.91 0.647 3.827 0.906 5.751 0.255 1.924 0.466 3.854 0.638 5.788 0.168 1.934 0.292 3.872 0.373 5.812s0.115 3.881 0.107 5.824c0.052 34.793-14.223 66.558-38.073 90.961-4.316 4.339-8.752 8.545-13.305 12.615 0.1-15.238 4.094-76.979-5.153-86.631-9.456-9.867-64.662-42.419-77.841-45.882zM611.581 487.359c1.272-51.313 0.251-102.886 0.222-154.223-0.015-33.356 1.717-67.776-0.325-101.023 11.854 10.29 23.53 21.282 32.348 34.504 24.678 35.833 34.703 78.122 27.461 121.514-5.71 34.236-26.43 75.998-54.969 96.489-1.471 1.057-3.048 2.094-4.737 2.739zM420.607 486.864c-34.134-29.319-54.76-66.726-58.784-112.529-0.227-2.499-0.394-5-0.505-7.506-0.109-2.508-0.161-5.015-0.157-7.523s0.068-5.015 0.19-7.519c0.12-2.506 0.301-5.007 0.536-7.504 0.237-2.497 0.532-4.985 0.882-7.466 0.351-2.484 0.76-4.957 1.224-7.419 0.466-2.462 0.989-4.913 1.569-7.351 0.577-2.434 1.211-4.854 1.902-7.26 0.691-2.41 1.438-4.798 2.238-7.168 0.802-2.368 1.656-4.717 2.567-7.046 0.909-2.331 1.872-4.634 2.887-6.915 1.015-2.283 2.083-4.538 3.203-6.769 1.12-2.229 2.29-4.432 3.512-6.606 1.222-2.17 2.492-4.312 3.813-6.421 1.32-2.111 2.689-4.19 4.105-6.236 1.416-2.044 2.88-4.055 4.388-6.029 8.471-10.948 17.994-20.807 28.96-29.153-1.12 62.142-0.166 124.457-0.131 186.616 0.009 13.155 2.238 57.331-0.885 66.952l-1.512 0.85z" />
<glyph unicode="&#xe91f;" glyph-name="Group3" d="M677.249 215.182c22.818 0.861 169.541 3.001 180.469-2.441 4.583-2.28 8.522-6.533 9.966-11.529 1.643-5.672 0.267-11.724-2.667-16.731-3.156-5.381-8.516-7.068-14.125-8.583-37.443-1.045-75.128-0.176-112.607-0.18-19.017 0-39.476-1.787-58.36-0.23-4.338 0.355-8.89 1.799-12.539 4.226-1.11 0.727-2.134 1.559-3.078 2.495-0.94 0.94-1.781 1.964-2.52 3.072-0.74 1.11-1.36 2.286-1.864 3.525-0.502 1.237-0.88 2.514-1.128 3.826-0.228 1.154-0.336 2.318-0.326 3.492 0.010 1.177 0.136 2.338 0.38 3.486 0.242 1.151 0.598 2.263 1.066 3.337 0.466 1.076 1.034 2.094 1.705 3.051 3.833 5.525 9.277 7.973 15.627 9.183zM691.695 567.906c28.839 1.212 58.067 0.341 86.95 0.351 21.142 0.006 43.077 1.256 64.094-0.403 5.657-0.447 14.528-1.235 19.385-4.386 2.771-1.797 5.099-7.697 5.874-10.811 1.197-4.827 0.65-9.563-2.027-13.782-4.526-7.132-10.119-8.629-17.778-10.173-29.474-0.867-59.187-0.199-88.68-0.261-21.103-0.044-43.131-1.36-64.138 0.483-5.283 0.464-11.506 1.128-16.022 4.136-3.801 2.533-6.299 6.597-7.141 11.107-1.055 5.617 0.449 11.375 3.634 16.052 3.847 5.647 9.69 6.487 15.849 7.688zM563.447 224.503c7.068 0.385 15.111-0.316 20.806-5.097 2.648-2.221 3.797-5.484 3.979-8.884 0.548-9.95-5.768-18.881-12.096-25.865-9.193-10.148-64.345-69.429-75.74-69.576-10.023-0.123-16.336 7.415-23.050 13.855-6.769 6.723-14.7 13.557-19.663 21.788-2.83 4.692-4.763 10.29-3.352 15.801 1.291 5.053 5.398 9.523 9.828 12.025 15.205 8.568 22.541-9.304 34.287-12.775 6.324-1.87 52.583 51.825 65.001 58.727zM677.288 122.59c18.449 1.091 37.173 0.251 55.666 0.395 17.295 0.136 35.694 1.586 52.878-0.265 4.953-0.535 10.209-1.45 14.48-4.186 4.033-2.575 6.917-6.393 7.899-11.168 1.124-5.444-0.41-11.245-3.511-15.757-4.148-6.048-9.114-7.757-16.004-8.953-19.462-1.037-39.376-0.355-58.88-0.46-15.584-0.086-32.375-1.386-47.84 0.545-4.97 0.619-10.006 2.010-14.359 4.566-4.094 2.405-7.778 6.196-8.921 10.978-1.287 5.402 0.779 11.306 3.638 15.847 3.63 5.772 8.819 7.003 14.952 8.457zM684.952 474.173c16.002 1.944 100.112 2.98 111.938-1.304 4.259-1.544 8.088-4.409 9.989-8.677 2.19-4.913 1.9-11.6-0.023-16.553-2.349-6.037-7.26-8.453-12.725-10.944-19.147-1.705-91.669-3.095-107.765 0.782-4.631 1.11-9.379 3.521-11.87 7.83-2.683 4.641-3.013 12.083-1.48 17.134 1.885 6.211 6.687 8.865 11.935 11.732zM518.386 560.797c5.346-0.7 10.622-2.635 14.76-6.2 3.043-2.621 4.769-6.131 5.016-10.179 0.558-9.097-6.060-17.918-11.82-24.296-16.018-17.751-34.016-33.915-50.734-50.993-13.742-14.037-27.157-30.739-42.442-42.918-3.801-3.030-9.089-6.526-14.079-6.597-14.911-0.215-37.121 28.461-47.231 38.998-7.256 7.181-19.034 16.244-21.065 26.67-0.24 1.231-0.362 2.474-0.362 3.73-0.002 1.256 0.117 2.499 0.357 3.732 0.238 1.233 0.591 2.43 1.062 3.592s1.047 2.265 1.728 3.314c2.623 3.939 6.932 6.888 11.559 7.73 19.005 3.461 39.307-29.222 53.618-39.608l0.424-0.305c21.544 19.657 41.466 42.214 61.942 63.076 8.723 8.89 17.661 19.303 27.89 26.398 2.846 1.973 6.065 2.997 9.377 3.856zM488.582 251.551c4.386-0.115 8.859-1.166 13.18-1.91 4.608-4.451 7.833-9.038 9.866-15.166 0.913-2.752 1.154-5.887-0.24-8.533-7.066-13.41-28.407-13.822-41.064-17.836-1.866-0.61-3.701-1.31-5.502-2.096-1.799-0.79-3.559-1.666-5.277-2.627-1.718-0.959-3.388-2-5.005-3.12-1.62-1.124-3.183-2.324-4.69-3.597-1.505-1.275-2.947-2.621-4.326-4.037-1.379-1.413-2.687-2.89-3.927-4.43-1.237-1.544-2.401-3.145-3.488-4.802-1.087-1.655-2.094-3.358-3.020-5.112-7.83-15.161-9.626-35.123-4.566-51.47 4.807-15.531 18.215-30.026 32.344-37.428 25.401-13.306 57.691-7.753 76.869 14.104 7.653 8.729 12.092 26.265 23.957 29.761 4.915 1.452 10.8 0.487 15.214-2.050 4.28-2.46 7.91-6.188 9.122-11.139 2.589-10.549-5.686-22.513-10.721-31.107-2.012-3.047-4.2-5.96-6.564-8.737-1.085-1.321-2.201-2.614-3.348-3.877-1.147-1.26-2.326-2.493-3.536-3.697-1.206-1.208-2.443-2.38-3.709-3.521-1.264-1.143-2.558-2.255-3.874-3.331-1.323-1.078-2.669-2.121-4.040-3.131-1.367-1.011-2.761-1.987-4.182-2.928-1.417-0.936-2.855-1.839-4.315-2.71-1.463-0.867-2.945-1.697-4.447-2.491s-3.024-1.549-4.562-2.265c-1.538-0.717-3.095-1.396-4.671-2.035-1.572-0.637-3.158-1.235-4.758-1.795s-3.214-1.080-4.842-1.557c-1.628-0.481-3.264-0.917-4.913-1.314-1.647-0.397-3.304-0.752-4.97-1.066s-3.337-0.585-5.016-0.815c-1.68-0.228-3.362-0.414-5.051-0.56-1.695-0.134-3.394-0.224-5.093-0.272-1.699-0.046-3.4-0.050-5.099-0.015-1.701 0.038-3.4 0.115-5.095 0.236-1.697 0.123-3.39 0.286-5.078 0.489-1.686 0.207-3.371 0.456-5.047 0.746-1.676 0.286-3.344 0.616-5.005 0.991-1.659 0.374-3.31 0.786-4.951 1.239s-3.271 0.949-4.886 1.482c-1.618 0.537-3.22 1.112-4.809 1.726-1.588 0.616-3.162 1.271-4.719 1.96-1.557 0.694-3.097 1.425-4.618 2.196-1.523 0.769-3.026 1.576-4.508 2.42-1.484 0.844-2.945 1.724-4.384 2.642-1.442 0.917-2.859 1.868-4.253 2.855-1.394 0.988-2.765 2.008-4.109 3.062-1.346 1.057-2.664 2.146-3.958 3.266-20.923 18.271-33.1 42.826-35.058 70.717-1.979 28.196 6.148 55.706 24.532 77.157 19.882 23.199 44.429 33.389 74.209 35.529zM539.454 941.020h185.417c22.584-12.345 43.223-21.899 51.25-48.962 3.321-11.172 3.946-23.436 3.3-35.035l113.58-0.185c21.673-0.034 46.676 2.426 67.801-2.294 9.858-2.203 16.835-5.957 23.966-13.257 7.339-7.508 11.022-16.944 12.175-27.314 2.389-21.412 0.869-44.376 0.819-65.938l-0.138-118.523 0.040-237.33c0.010-34.647 0.928-69.496 0.311-104.114-0.169-9.463-2.033-19.922-9.084-26.728-3.032-2.932-7.007-4.953-11.264-4.823-4.629 0.14-8.951 2.713-12.012 6.134-3.536 3.956-5.734 9.498-6.173 14.8-1.44 17.356-0.213 35.938-0.207 53.394l0.048 108.145 0.044 354.474c-0.019 3.988 0.972 17.631-1.085 20.704-1.045 1.561-10.666 2.143-12.52 2.273-21.506 1.518-45.163-2.664-66.209 0.816-0.336-23.45-0.435-47.16-18.137-64.77-7.594-7.55-18.862-14.070-29.437-15.819-14.25-2.357-30.154-1.131-44.598-1.143l-78.725-0.004c-83.922 0.027-168.022-1.266-251.921 0.040-21.040 0.328-39.138 2.474-54.42 18.52-16.252 17.063-15.609 39.965-15.446 62.095-26.008 0.703-53.114 2.182-78.984-0.658-4.648-27.955-1.87-62.501-1.831-91.104 0.038-27.464-1.776-56.368 1.103-83.648 35.524 36.285 85.025 55.237 135.151 55.398 3.252 0.027 6.503-0.029 9.753-0.167s6.493-0.357 9.732-0.662c3.239-0.303 6.468-0.688 9.688-1.156s6.426-1.016 9.619-1.647c3.191-0.631 6.366-1.344 9.523-2.136s6.294-1.666 9.408-2.619c3.114-0.951 6.203-1.981 9.266-3.091s6.098-2.297 9.103-3.561c3.001-1.264 5.973-2.604 8.911-4.019s5.841-2.905 8.704-4.468c2.863-1.561 5.686-3.197 8.472-4.903 2.784-1.707 5.525-3.484 8.221-5.331 2.696-1.845 5.344-3.76 7.943-5.741 2.602-1.981 5.151-4.027 7.649-6.138 2.501-2.111 4.949-4.284 7.337-6.518 2.395-2.236 4.729-4.531 7.009-6.886 2.297-2.301 4.537-4.66 6.721-7.076 2.184-2.414 4.307-4.882 6.372-7.404 2.061-2.522 4.060-5.095 5.996-7.718s3.808-5.293 5.613-8.010c1.803-2.717 3.542-5.479 5.212-8.284s3.268-5.649 4.798-8.535c1.532-2.886 2.99-5.808 4.378-8.767s2.702-5.952 3.941-8.978c1.239-3.024 2.405-6.079 3.496-9.164 1.091-3.082 2.107-6.192 3.047-9.329 0.938-3.135 1.797-6.292 2.579-9.471 0.786-3.179 1.492-6.374 2.117-9.588 0.627-3.216 1.177-6.443 1.647-9.684 0.466-3.243 0.855-6.495 1.164-9.755 0.311-3.262 0.541-6.531 0.69-9.803s0.217-6.547 0.207-9.824c0.004-3.271-0.071-6.541-0.226-9.81-0.159-3.268-0.395-6.531-0.711-9.787s-0.711-6.503-1.185-9.741c-0.472-3.235-1.024-6.457-1.655-9.667-0.635-3.208-1.346-6.399-2.132-9.571-0.788-3.174-1.653-6.326-2.593-9.454-0.94-3.131-1.958-6.236-3.053-9.314-1.095-3.076-2.261-6.125-3.5-9.143-1.243-3.022-2.558-6.008-3.946-8.963-1.39-2.955-2.85-5.87-4.378-8.748-1.532-2.882-3.135-5.722-4.804-8.524-1.666-2.796-3.402-5.553-5.208-8.267-1.803-2.71-3.674-5.375-5.607-7.993-1.933-2.621-3.929-5.189-5.991-7.707s-4.182-4.982-6.361-7.394c-2.18-2.414-4.416-4.769-6.71-7.066-2.297-2.322-4.646-4.585-7.053-6.788-2.405-2.203-4.865-4.343-7.377-6.424-2.512-2.077-5.072-4.090-7.684-6.042-2.61-1.95-5.266-3.835-7.968-5.653-2.702-1.814-5.448-3.559-8.236-5.235-2.788-1.682-5.615-3.289-8.48-4.823-2.867-1.536-5.77-2.999-8.704-4.386-2.94-1.39-5.91-2.706-8.911-3.946-3.005-1.241-6.037-2.405-9.097-3.492s-6.142-2.096-9.252-3.026c-3.11-0.934-6.238-1.787-9.389-2.56-3.149-0.775-6.317-1.467-9.502-2.081-3.185-0.616-6.382-1.151-9.592-1.605-3.212-0.453-6.432-0.825-9.661-1.116s-6.462-0.499-9.701-0.631c-3.239-0.125-6.48-0.173-9.722-0.14-29.621 0.121-56.92 7.103-84.175 18.382-14.315-14.244-29.821-28.26-42.97-43.581 5.020-5.822 10.219-11.419 9.605-19.772-0.723-9.839-11.657-19.287-17.429-26.8-1.898-15.312-1.060-31.328-1.072-46.763l-0.067-75.463-0.008-71.962c0.006-15.184-1.227-31.832 1.567-46.757 2.127-2.671 5.417-3.166 8.614-3.486 11.636-1.174 23.999-0.27 35.715-0.265l565.977-0.040c12.976 0.006 26.634-0.69 39.506 1.005 4.33 30.611 1.829 63.778 1.755 94.726-0.025 11.078-0.957 23.498 1.085 34.363 0.775 4.115 2.694 8.221 6.046 10.802 4.148 3.202 9.952 4.282 15.036 3.496 4.788-0.744 9.509-2.965 12.447-7.001 6.608-9.084 4.882-122.477 2.077-138.831-2.447-14.25-8.211-21.849-19.746-29.966-4.315-3.036-9.419-5.007-13.59-8.073h-659.732c-7.787 4.47-16.1 9.013-22.704 15.224-6.389 6.008-9.139 12.976-10.658 21.443-3.716 20.693-1.62 44.506-1.603 65.588 0.038 47.679 1.294 95.675-0.222 143.314l-53.772-54.646c-13.408-13.669-26.691-28.889-42.486-39.765-10.204-7.028-21.54-12.359-33.8-14.25-25.049-3.87-50.5 1.515-71 16.892-2.281 1.714-4.475 3.536-6.581 5.467s-4.114 3.96-6.024 6.088c-1.91 2.132-3.713 4.349-5.41 6.658s-3.278 4.698-4.744 7.162c-1.466 2.464-2.81 4.995-4.033 7.592-1.222 2.602-2.317 5.256-3.283 7.964-0.967 2.704-1.801 5.452-2.502 8.242-0.702 2.792-1.268 5.609-1.698 8.453-3.673 24.879 1.714 50.824 16.581 71.162 17.105 23.393 53.876 56.399 75.284 78.073 21.328 21.598 42.072 46.322 65.058 65.954 3.812 3.256 8.048 6.418 13.132 7.064 8.166 1.034 14.58-4.217 20.697-8.873 13.95 14.568 28.088 28.95 42.411 43.146-12.098 28.17-18.227 56.021-18.597 86.724-0.245 20.254 2.021 41.211 8.378 60.487 4.587 13.908 11.101 26.777 12.284 41.627 1.496 18.781 0.466 38.381 0.439 57.269-0.073 49.461-1.814 99.478 0 148.875 0.658 17.928 3.839 29.689 17.134 42.115 6.913 6.462 15.122 8.526 24.233 9.896 22.72 3.418 48.009 1.328 71.068 1.307 34.935-0.033 70.115 0.892 105.006-0.502-0.251 11.793 0.66 23.985 4.008 35.324 7.952 26.944 27.339 36.899 50.021 49.293zM444.715 335.947c2.593 0.021 5.183 0.107 7.77 0.257 2.587 0.148 5.168 0.364 7.747 0.644 2.577 0.278 5.145 0.619 7.705 1.026s5.11 0.878 7.649 1.411c2.537 0.533 5.059 1.128 7.569 1.785 2.508 0.66 5.001 1.381 7.473 2.161 2.474 0.784 4.928 1.628 7.362 2.531 2.433 0.907 4.842 1.872 7.229 2.896s4.748 2.109 7.080 3.252c2.334 1.143 4.639 2.345 6.917 3.601 2.276 1.258 4.518 2.57 6.731 3.937 2.213 1.371 4.391 2.794 6.535 4.272s4.251 3.005 6.322 4.587c2.069 1.584 4.098 3.216 6.090 4.896 1.989 1.684 3.937 3.417 5.845 5.197 1.906 1.781 3.768 3.605 5.586 5.477s3.59 3.791 5.316 5.751c1.726 1.96 3.404 3.962 5.034 6.008 1.628 2.046 3.206 4.132 4.735 6.251 1.528 2.125 3.005 4.286 4.428 6.483 1.419 2.198 2.79 4.428 4.106 6.694 1.317 2.263 2.575 4.56 3.778 6.888 1.204 2.326 2.351 4.683 3.442 7.068 1.091 2.382 2.123 4.794 3.097 7.231 0.974 2.435 1.887 4.894 2.742 7.375 0.855 2.483 1.649 4.984 2.382 7.504 0.736 2.522 1.409 5.059 2.017 7.613 0.61 2.556 1.16 5.124 1.647 7.705s0.911 5.174 1.273 7.776c0.362 2.604 0.66 5.214 0.897 7.833 0.234 2.616 0.405 5.239 0.514 7.866 0.109 2.625 0.153 5.254 0.132 7.883-0.019 2.627-0.1 5.254-0.247 7.879s-0.357 5.243-0.631 7.858c-0.272 2.614-0.608 5.22-1.005 7.818-0.397 2.596-0.859 5.183-1.386 7.757-0.522 2.573-1.108 5.133-1.755 7.678-0.652 2.545-1.36 5.074-2.132 7.584-0.769 2.51-1.599 4.999-2.489 7.467-0.892 2.468-1.841 4.913-2.85 7.335-1.009 2.42-2.077 4.815-3.202 7.183-1.124 2.37-2.305 4.708-3.544 7.018-1.237 2.309-2.529 4.585-3.877 6.832-1.352 2.244-2.754 4.453-4.207 6.629-1.457 2.175-2.963 4.313-4.522 6.414-1.557 2.1-3.166 4.161-4.823 6.18-1.659 2.021-3.367 3.998-5.118 5.933-1.755 1.935-3.555 3.826-5.4 5.672s-3.732 3.645-5.665 5.396c-1.933 1.751-3.908 3.454-5.922 5.107-2.017 1.653-4.069 3.254-6.161 4.807-2.094 1.551-4.221 3.049-6.386 4.493-2.165 1.446-4.366 2.836-6.597 4.171s-4.493 2.614-6.786 3.837c-2.295 1.225-4.618 2.389-6.969 3.496-2.349 1.108-4.725 2.157-7.126 3.145s-4.825 1.918-7.27 2.786c-2.447 0.869-4.913 1.676-7.398 2.422s-4.986 1.429-7.504 2.050c-2.518 0.621-5.051 1.179-7.596 1.674s-5.101 0.928-7.667 1.296c-2.564 0.368-5.139 0.671-7.72 0.911s-5.166 0.416-7.755 0.527c-2.589 0.111-5.179 0.157-7.77 0.14-2.593-0.019-5.187-0.1-7.776-0.247s-5.172-0.359-7.753-0.635c-2.579-0.276-5.149-0.614-7.713-1.018-2.562-0.405-5.114-0.871-7.653-1.402-2.541-0.531-5.068-1.124-7.578-1.783-2.512-0.656-5.007-1.375-7.484-2.155-2.476-0.782-4.932-1.624-7.369-2.527-2.435-0.905-4.848-1.868-7.237-2.89-2.389-1.024-4.752-2.107-7.089-3.248-2.338-1.141-4.646-2.341-6.923-3.597-2.28-1.256-4.526-2.568-6.742-3.937-2.215-1.367-4.397-2.79-6.543-4.267-2.146-1.475-4.255-3.005-6.328-4.587-2.071-1.582-4.104-3.214-6.098-4.898-1.994-1.682-3.943-3.413-5.854-5.193s-3.774-3.607-5.594-5.482c-1.822-1.872-3.597-3.791-5.325-5.751-1.728-1.962-3.406-3.966-5.038-6.012-1.63-2.044-3.212-4.129-4.742-6.253-1.53-2.125-3.007-4.286-4.432-6.483-1.427-2.198-2.798-4.43-4.115-6.696-1.319-2.265-2.579-4.564-3.787-6.892-1.206-2.33-2.353-4.687-3.446-7.072-1.091-2.387-2.125-4.798-3.101-7.237-0.974-2.437-1.891-4.898-2.746-7.381-0.857-2.483-1.651-4.986-2.387-7.509s-1.409-5.061-2.021-7.619c-0.61-2.556-1.16-5.126-1.649-7.709-0.487-2.583-0.911-5.179-1.273-7.782-0.362-2.606-0.66-5.218-0.897-7.839-0.234-2.619-0.408-5.243-0.514-7.87-0.109-2.629-0.153-5.258-0.134-7.889s0.1-5.26 0.249-7.887c0.146-2.625 0.355-5.245 0.629-7.862s0.61-5.224 1.009-7.824c0.399-2.598 0.861-5.187 1.388-7.762 0.525-2.577 1.11-5.139 1.76-7.686 0.65-2.545 1.358-5.076 2.132-7.586 0.771-2.512 1.603-5.003 2.495-7.473 0.89-2.47 1.843-4.917 2.853-7.337 1.011-2.424 2.079-4.821 3.206-7.193 1.126-2.368 2.309-4.706 3.551-7.018 1.239-2.311 2.535-4.587 3.885-6.832 1.35-2.249 2.752-4.46 4.211-6.637 1.457-2.175 2.965-4.313 4.526-6.414s3.172-4.161 4.832-6.182c1.661-2.021 3.369-4 5.126-5.937 1.755-1.935 3.559-3.824 5.406-5.672 1.847-1.845 3.739-3.645 5.674-5.398 1.935-1.751 3.912-3.452 5.929-5.107 2.019-1.649 4.075-3.25 6.169-4.8 2.096-1.551 4.226-3.051 6.395-4.497 2.167-1.444 4.368-2.834 6.604-4.167 2.234-1.333 4.499-2.612 6.796-3.837 2.297-1.22 4.623-2.382 6.976-3.49s4.731-2.155 7.135-3.141c2.403-0.988 4.83-1.914 7.279-2.782s4.917-1.672 7.404-2.416c2.489-0.744 4.993-1.425 7.513-2.046 2.522-0.616 5.055-1.172 7.603-1.666s5.105-0.924 7.674-1.291c2.568-0.362 5.145-0.662 7.728-0.899 2.583-0.238 5.17-0.412 7.762-0.52s5.183-0.15 7.776-0.132zM288.858 300.27c11.634 12.234 24.547 24.104 35.357 37.014-8.11 6.656-15.742 13.504-23.109 21.007-4.884 4.972-9.72 11.379-15.262 15.46-11.715-12.288-23.611-24.392-35.687-36.312 6.326-7.824 30.214-34.998 38.701-37.169zM572.14 901.663c-14.148-0.247-29.288 0.327-39.886-11.063-21.579-23.188 13.818-71.726-34.352-73.869-15.356-0.683-58.999-1.863-72.096 0.655-0.395-10.85-3.082-27.616 4.748-36.231 5.881-6.47 20.442-6.404 28.582-6.524 78.129-1.158 156.459 0.009 234.611 0.013l84.578-0.071c16.131 0 34.145-1.413 50.040 1.547 6.671 5.064 10.276 9.562 11.45 18.329 0.947 7.093 0.374 14.843 0.251 22.008-15.174 0.239-30.352 0.348-45.53 0.326-11.228-0.084-23.251-1.137-34.327 0.512-5.066 0.754-10.553 1.953-14.173 5.885-17.107 18.568 16.422 75.052-38.555 78.251-21.5 1.252-43.321 0.536-64.863 0.515-23.443-0.022-47.050 0.521-70.478-0.283zM204.415 326.209c-24.725-21.136-47.006-46.807-69.915-69.985-17.691-17.901-40.625-36.929-54.888-57.16-5.745-8.148-9.334-17.402-10.197-27.406-1.181-13.68 2.968-26.52 11.677-36.998 9.559-11.5 20.949-17.797 35.781-19.048 7.214-0.61 15.091 0.040 21.792 2.926 6.043 2.451 10.946 5.408 15.976 9.609 17.986 15.011 34.29 33.713 50.788 50.464 24.275 24.643 49.321 48.893 72.714 74.386-12.537 12.696-63.445 67.826-73.728 73.212zM596.982 858.022c18.424 0.78 63.31 3.468 78.183-2.473 4.744-1.896 9.32-5.147 11.258-10.118 1.893-4.847 0.903-10.55-1.049-15.211-2.827-6.734-8.597-9.202-14.804-11.839-17.084-1.147-69.266-3.35-83.199 3.797-3.925 2.013-7.333 5.060-8.643 9.442-1.663 5.571 0.472 12.763 3.289 17.639 3.392 5.883 8.93 7.179 14.965 8.763zM958.219 431.039c-0.021 10.919 8.842 19.774 19.761 19.742 10.863-0.029 19.655-8.844 19.655-19.707v-215.815c0-10.779-8.737-19.517-19.517-19.517-10.765 0-19.496 8.717-19.515 19.481l-0.385 215.815z" />
<glyph unicode="&#xe920;" glyph-name="hands" d="M192.5 269.95c-23.891 1.876-44.669 5.864-60.954 25.198-10.295 12.224-14.716 27.633-13.37 43.51 0.678 8.001 2.834 17.159 6.264 24.402 4.267 9.021 21.331 26.893 19.23 36.481-4.707 1.903-32.078-8.629-41.559-9.158-26.159-1.47-88.322 28.585-99.115 53.006-5.508 12.466-2.618 21.67 2.205 33.62 6.467 16.028 16.683 31.24 25.432 46.111l43.578 74.010 58.009 98.717c10.63 18.14 20.769 37.189 32.492 54.61 4.775 7.092 13.176 19.885 21.181 23.174 12.804 5.262 27.464 2.53 39.662-3.019 26.498-12.056 59.761-31.392 70.459-60.114 4.919-13.212 5.665-26.796 5.719-40.751 18.759-11.119 36.082-14.918 57.443-9.342 13.494 3.516 26.531 9.309 39.553 14.265 43.325 16.479 63.198 6.443 102.558-11.401 30.716 4.745 63.148 20.381 94.084 19.205 41.113-1.555 62.331-28.264 111.448-24.375-5.251 21.904-3.584 45.404 8.233 64.981 13.051 21.625 50.858 45.53 74.997 51.289 8.565 2.044 24.128 3.063 31.725-2.126 7.239-4.946 14.44-15.791 19.232-23.080 27.957-42.528 52.454-88.678 78.288-132.619 25.044-42.581 52.637-84.953 75.55-128.645 3.746-7.145 8.486-16.282 9.61-24.356 1.362-9.805-3.625-21.166-9.544-28.678-14.889-18.909-55.339-41.312-79.244-43.991-13.297-1.492-25.764 0.823-38.775 3.281l-22.574-12.694c10.356-21.434 17.433-40.883 9.33-64.611-0.649-1.934-1.395-3.833-2.233-5.694-0.837-1.857-1.764-3.669-2.786-5.439-1.016-1.764-2.121-3.472-3.312-5.124-1.19-1.656-2.461-3.248-3.81-4.772-1.351-1.526-2.773-2.979-4.266-4.361s-3.053-2.682-4.676-3.903c-1.623-1.223-3.304-2.363-5.045-3.418-1.735-1.055-3.52-2.017-5.356-2.89-11.747-5.705-25.726-8.785-38.73-6.915-2.336 0.332-7.881 2.255-9.894 1.909-9.415-1.607-16.212-67.422-81.549-53.93-6.395-22.192-14.562-40.206-35.548-51.816-1.71-0.947-3.46-1.805-5.251-2.575-1.793-0.771-3.617-1.453-5.474-2.046-1.857-0.597-3.74-1.101-5.649-1.511-1.903-0.404-3.826-0.719-5.765-0.941-1.934-0.222-3.876-0.348-5.823-0.379-1.953-0.031-3.901 0.035-5.845 0.195-1.938 0.162-3.87 0.417-5.79 0.765-1.919 0.35-3.814 0.792-5.688 1.327-5.35 1.575-10.466 3.851-15.459 6.314-9.558-26.978-20.343-41.967-46.58-54.392-1.045-0.497-1.934-0.929-2.856-1.635h-30.685c-21.309 11.44-42.316 23.413-63.024 35.919-15.978-14.060-31.931-24.147-54.011-22.644-17.362 1.177-32.942 9.898-44.302 23.011-4.471 5.157-7.736 10.916-10.926 16.931-22.379-4.394-42.718-5.472-62.543 8.111-14.413 9.877-21.315 23.448-25.863 39.94-20.571 0.164-40.639 4.714-55.518 20.016-9.419 9.687-13.546 20.113-16.887 33.044zM435.598 644.666c-60.704-9.83-83.601-47.935-150.771-10.25l-76.899-130.639c-12.039-20.42-26.158-40.809-36.737-61.975-1.671-3.346-3.258-6.517-2.532-10.34 16.777-10.387 51.696 26.212 94.698-27.435 15.368 12.636 31.431 19.213 51.569 17.199 17.491-1.747 32.78-10.597 43.777-24.298 6.585-8.204 10.132-16.95 12.8-27.109 22.368-1.615 43.408-5.713 58.882-23.527 11.712-13.472 15.972-31.199 14.661-48.791-0.402-5.3-1.447-10.51-2.591-15.694 18.674-5.491 34.756-14.55 44.463-32.304 8.48-15.499 9.212-34.515 4.206-51.289-1.662-5.595-3.727-11.036-6.194-16.322 16.811-8.217 45.755-32.331 64.473-25.886 6.376 2.197 11.987 6.884 14.759 13.146 2.655 6.001 3.18 12.982 0.732 19.133-8.252 20.741-65.998 35.461-56.31 58.478 1.986 4.712 5.537 9.191 10.368 11.127 7.137 2.856 15.453-0.085 22.037-3.178 23.537-11.059 82.281-58.98 106.013-50.477 6.188 2.216 12.674 8.275 15.433 14.251 2.187 4.753 2 9.693 0.195 14.531-2.519 6.726-7.616 12.367-13.084 16.865-12.972 10.681-29.126 18.519-43.663 26.945-17.785 10.393-35.448 20.992-52.987 31.794-4.233 5.609-6.266 10.342-5.259 17.501 0.663 4.751 2.649 8.961 6.525 11.89 4.48 3.373 10 3.771 15.356 2.844 11.712-2.021 86.373-48.694 102.272-58.387 12.336-7.531 24.945-17.636 39.074-21.317 7.077-1.843 14.894-1.687 21.017 2.751 5.246 3.804 8.161 10.335 8.94 16.656 0.129 1.028 0.207 2.060 0.228 3.091 0.025 1.038-0.002 2.073-0.085 3.105-0.081 1.034-0.214 2.058-0.396 3.072-0.185 1.020-0.421 2.027-0.707 3.022-0.286 0.997-0.622 1.975-1.007 2.935-0.381 0.958-0.811 1.897-1.293 2.817-0.479 0.914-1.007 1.805-1.577 2.666-0.568 0.864-1.179 1.694-1.832 2.49-7.842 9.701-22.731 15.551-33.425 21.697-19.263 11.079-94.741 52.804-104.454 64.531-2.78 3.346-3.259 7.68-2.948 11.89 0.344 4.674 1.953 10.518 5.752 13.544 3.532 2.817 9.602 4.191 14.006 3.484 14.303-2.301 30.685-14.576 43.052-22.002 32.38-19.433 120.214-77.003 148.534-84.455 9.836 3.456 18.426 7.013 23.432 17.047 2.643 5.296 2.533 10.924 0.638 16.44-1.787 5.191-3.936 8.544-8.26 11.977-26.062 20.669-61.181 37.952-89.983 55.124-54.948 32.77-109.578 66.44-165.299 97.85-11.148-23.591-27.729-43.168-52.786-52.268-13.899-5.052-31.269-7.125-44.967-0.524-8.161 3.93-16.343 11.198-19.271 20.011-8.395 25.304-6.337 118.983 5.79 142.359 3.397 6.556 7.896 12.419 12.356 18.276-9.881 2.786-20.335 6.349-30.724 5.93zM800.751 738.541c-19.738-10.491-51.708-24.35-59.091-47.444-2.728-8.538-0.325-16.597 3.708-24.232 9.135-17.277 30.144-37.26 24.178-58.126-1.059-3.692-3.532-6.575-6.869-8.412-4.799-2.647-11.071-3.039-16.245-1.385-7.896 2.516-12.226 10.269-15.634 17.329-1.395 2.919-2.715 5.874-3.961 8.864-36.12-10.735-61.227-5.688-95.645 7.751-10.986 4.295-22.153 8.727-33.943 10.159-16.68 2.033-75.687-13.467-90.97-21.813-7.064-3.856-12.875-9.054-16.842-16.146-3.526-6.308-5.319-13.237-6.246-20.356-1.675-12.877-3.317-76.479 0.143-87.417 0.338-1.065 0.935-2.038 1.565-2.948 9.687-1.248 17.926-0.953 25.867 5.354 21.166 16.807 18.27 63.206 39.080 61.198 17.802-1.712 161.038-92 190.464-109.079 25.308-15.455 52.162-34.567 79.302-46.196 8.304 4.772 16.641 10.124 25.445 13.87-13.915 29.854-32.952 57.91-49.397 86.457-4.668 8.105-11.173 16.695-14.504 25.33-1.741 4.531-2.033 10.414-0.267 14.97 1.739 4.517 5.57 8.053 9.993 9.863 4.187 1.708 8.395 1.505 12.53-0.253 25.374-10.82 55.65-99.139 80.212-118.906 11.558-9.303 23.718-10.197 37.314-5.033 15.764 5.988 30.865 17.505 45.429 26.147-9.233 20.839-22.057 40.45-33.593 60.074l-55.116 93.607-48.702 83.017c-7.545 12.864-14.688 27.383-23.33 39.463-1.279 1.791-3.037 3.131-4.875 4.295zM202.501 739.411l-101.824-172.362c-21.079-35.817-44.178-71.547-62.661-108.766 17.875-11.25 39.853-28.291 61.383-30.189 14.055 2.060 22.186 8.146 30.617 19.429 18.268 24.441 32.298 54.43 47.994 80.821l50.387 85.305c9.429 16.023 20.244 32.233 27.986 49.138 3.64 7.949 7.937 18.969 6.561 27.795-1.77 11.353-12.953 20.779-21.877 26.951-10.383 7.183-26.624 18.061-38.568 21.879zM377.462 331.272c-4.701-2.172-9.16-4.459-12.956-8.061-14.16-13.434-51.586-65.132-58.19-82.946-2.745-7.4-3.93-16.492-0.425-23.865 2.637-5.543 7.711-8.924 13.36-10.864 3.932-1.347 8.787-1.851 12.945-1.7 3.634 1.117 7.73 2.359 10.646 4.902 13.109 11.42 49.198 62.702 57.705 78.842 4.237 8.039 7.209 17.159 4.504 26.224-1.749 5.858-5.678 10.342-11.082 13.101-5.18 2.639-10.829 3.509-16.506 4.366zM304.205 383.225c-3.625-1.092-7.321-2.334-10.255-4.817-13.476-11.434-48.619-61.394-57.425-77.803-4.48-8.352-8.045-18.146-5.236-27.656 1.613-5.458 5.224-9.709 10.223-12.348 5.248-2.759 11.225-3.223 17.016-3.837 3.584 1.026 7.554 2.183 10.493 4.569 14.545 11.838 47.645 59.444 57.205 76.748 4.635 8.393 8.3 18.362 5.713 28.011-1.569 5.85-5.3 10.568-10.623 13.399-4.948 2.635-11.591 3.217-17.11 3.733zM201.904 396.358c-16.195-5.79-32.881-30.741-40.104-45.974-3.861-8.138-6.333-17.557-3.070-26.336 1.958-5.263 6.068-9.021 11.158-11.198 5.967-2.548 12.223-2.49 18.567-2.34 16.097 5.373 33.354 33.272 40.785 48.281 2.119 4.281 3.252 8.949 4.245 13.604-2.902 8.074-5.389 17.016-13.714 21.048-5.292 2.564-12.077 2.89-17.866 2.916zM421.662 243.030c-14.181-8.119-27.704-26.643-32.173-42.548-2.326-8.289-0.798-15.316 1.412-23.343 10.696-6.673 17.483-9.202 30.196-8.451 14.326 9.002 29.76 28.108 33.564 45.031 1.414 6.302 1.356 13.557-2.239 19.141-3.768 5.823-10.226 8.727-16.83 9.863-4.519 0.779-9.365 0.477-13.93 0.307z" />
<glyph unicode="&#xe921;" glyph-name="heart" d="M617.065 853.627c33.655 13.946 69.732 21.123 106.161 21.123s72.506-7.178 106.163-21.123c33.645-13.943 64.224-34.378 89.971-60.138 25.76-25.752 46.208-56.34 60.154-89.99 13.946-33.656 21.126-69.73 21.126-106.161s-7.181-72.505-21.126-106.161c-13.946-33.652-34.381-64.229-60.147-89.982 0-0.003 0.006 0.003 0 0l-377.171-377.176c-16.662-16.659-43.677-16.659-60.34 0l-377.173 377.176c-52.021 52.020-81.245 122.575-81.245 196.143s29.225 144.123 81.245 196.143c52.020 52.020 122.575 81.245 196.143 81.245s144.123-29.224 196.143-81.245l15.057-15.057 15.050 15.050c-0.003-0.003 0.002 0.002 0 0 25.753 25.763 56.336 46.207 89.989 60.152zM723.226 789.417c-25.222 0-50.195-4.97-73.498-14.624-23.299-9.654-44.468-23.805-62.298-41.644l-45.234-45.234c-16.662-16.662-43.677-16.662-60.34 0l-45.227 45.227c-36.017 36.017-84.867 56.252-135.804 56.252s-99.786-20.234-135.803-56.252c-36.017-36.017-56.252-84.867-56.252-135.804s20.235-99.786 56.252-135.804l347.003-347.001 347.002 347.001c17.843 17.83 32 39.007 41.651 62.307 9.658 23.3 14.624 48.275 14.624 73.496s-4.966 50.195-14.624 73.496c-9.651 23.3-23.802 44.47-41.645 62.301-17.83 17.838-39.014 32.003-62.31 41.658-23.302 9.654-48.275 14.624-73.498 14.624z" />
<glyph unicode="&#xe922;" glyph-name="home" d="M833.235 548.868l-321.255 249.843-321.255-249.843v-422.121c0-10.65 4.234-20.859 11.765-28.389s17.742-11.764 28.393-11.764h562.193c10.656 0 20.866 4.235 28.395 11.764s11.764 17.739 11.764 28.389v422.121zM913.547 126.747c0-31.949-12.698-62.578-35.292-85.173s-53.224-35.298-85.179-35.298h-562.193c-31.951 0-62.584 12.704-85.176 35.298s-35.294 53.224-35.294 85.173v441.728c0 12.386 5.717 24.078 15.49 31.686l361.412 281.098 5.686 3.725c13.801 7.405 30.957 6.145 43.647-3.725l361.413-281.098c9.77-7.608 15.486-19.3 15.486-31.686v-441.728zM592.294 46.423v361.41h-160.628v-361.41c0-22.179-17.979-40.159-40.157-40.159s-40.156 17.98-40.156 40.159v401.567l0.196 4.118c2.061 20.244 19.173 36.039 39.961 36.039l245.057-0.196c20.245-2.061 36.039-19.172 36.039-39.961v-401.567c0-22.179-17.974-40.159-40.153-40.159s-40.158 17.98-40.158 40.159z" />
<glyph unicode="&#xe923;" glyph-name="paper-clip" d="M705.293 858.104c-33.973 0-66.555-13.496-90.577-37.518l-392.107-392.107c-40.034-40.035-62.525-94.333-62.525-150.95 0-56.621 22.492-110.918 62.525-150.95s94.333-62.528 150.95-62.528c56.618 0 110.916 22.496 150.95 62.528l392.105 392.107c16.666 16.662 43.68 16.662 60.339 0 16.666-16.662 16.666-43.677 0-60.34l-392.105-392.106c-56.037-56.038-132.040-87.52-211.29-87.52s-155.252 31.482-211.29 87.52c-56.038 56.038-87.519 132.038-87.519 211.29 0 79.249 31.482 155.252 87.519 211.29l392.106 392.107c40.026 40.025 94.312 62.511 150.917 62.511 56.602 0 110.893-22.486 150.918-62.511s62.509-94.312 62.509-150.917c0-56.604-22.483-110.891-62.509-150.916l-392.536-392.104c-24.013-24.019-56.583-37.504-90.543-37.504s-66.529 13.485-90.543 37.504c-24.014 24.013-37.505 56.582-37.505 90.541s13.491 66.529 37.505 90.543l362.257 361.831c16.673 16.653 43.684 16.637 60.337-0.035s16.64-43.687-0.032-60.34l-362.223-361.797c-7.999-8.006-12.51-18.88-12.51-30.202 0-11.328 4.5-22.195 12.51-30.202 8.011-8.013 18.876-12.512 30.204-12.512s22.193 4.499 30.204 12.512l392.536 392.104c24.006 24.021 37.517 56.612 37.517 90.577 0 33.973-13.498 66.555-37.517 90.577-24.026 24.022-56.608 37.518-90.579 37.518z" />
<glyph unicode="&#xe924;" glyph-name="phone2" d="M831.985 32h-5.443c-628.799 36.157-718.079 566.72-730.559 728.64-1.951 25.384 6.262 50.503 22.831 69.833s40.137 31.286 65.521 33.239c2.538 0.192 5.088 0.288 7.648 0.288h168.64c12.818 0.012 25.344-3.824 35.956-11.013s18.821-17.399 23.564-29.307l48.64-119.68c4.683-11.634 5.846-24.387 3.342-36.675s-8.561-23.57-17.422-32.445l-68.16-68.8c10.604-60.522 39.564-116.32 82.955-159.823 43.388-43.505 99.109-72.612 159.607-83.374l69.437 68.797c9.006 8.765 20.398 14.679 32.748 17.014 12.344 2.335 25.108 0.978 36.695-3.896l120.637-48.317c11.73-4.895 21.734-13.164 28.744-23.767 7.009-10.598 10.706-23.045 10.619-35.753v-168.96c0-25.462-10.117-49.879-28.119-67.881-18.002-18.007-42.424-28.119-67.881-28.119zM191.983 800c-4.202 0.013-8.366-0.803-12.253-2.399s-7.422-3.943-10.403-6.905c-2.98-2.962-5.348-6.483-6.968-10.361s-2.46-8.036-2.472-12.239c0-0.896 0.032-1.781 0.096-2.656 14.72-189.44 109.12-637.44 670.082-669.44 8.468-0.507 16.794 2.371 23.142 7.997 6.349 5.632 10.199 13.548 10.711 22.016l0.067 1.987v168.96l-120.643 48.323-91.837-91.203-15.36 1.92c-278.402 34.883-316.162 313.28-316.162 316.16l-1.92 15.36 90.88 91.84-48 120.64h-168.96zM864 544v64h-146.755l210.755 210.752-45.245 45.248-210.755-210.752v146.752h-64v-256h256z" />
<glyph unicode="&#xe925;" glyph-name="user" d="M226.228 307.981c35.563 35.009 83.796 54.675 134.088 54.675h303.408c50.291 0 98.528-19.667 134.086-54.675 35.565-35.002 55.546-82.483 55.546-131.994v-74.662c0-20.621-16.986-37.338-37.926-37.338-20.947 0-37.926 16.717-37.926 37.338v74.662c0 29.709-11.987 58.195-33.325 79.2s-50.278 32.8-80.454 32.8h-303.408c-30.175 0-59.116-11.795-80.452-32.8s-33.325-49.491-33.325-79.2v-74.662c0-20.621-16.98-37.338-37.926-37.338s-37.926 16.717-37.926 37.338v74.662c0 49.51 19.979 96.992 55.541 131.994zM490.687 755.2c-63.623 0-115.2-51.577-115.2-115.2s51.577-115.2 115.2-115.2c63.623 0 115.2 51.577 115.2 115.2s-51.577 115.2-115.2 115.2zM298.687 640c0 106.038 85.962 192 192 192s192.001-85.962 192.001-192c0-106.038-85.962-192-192.001-192s-192 85.962-192 192z" />
<glyph unicode="&#xe926;" glyph-name="arrow180" d="M21.423 719.148c28.564 28.564 74.875 28.564 103.44 0l387.137-387.138 387.138 387.138c28.562 28.564 74.876 28.564 103.439 0s28.562-74.875 0-103.44l-438.856-438.857c-28.564-28.564-74.876-28.564-103.44 0l-438.857 438.857c-28.564 28.564-28.564 74.876 0 103.44z" />
<glyph unicode="&#xe927;" glyph-name="tel" horiz-adv-x="896" d="M319.16 788.509c-39.258 20.493-96.927 29.569-136.138 10.387-11.338-5.567-16.538-12.959-20.051-24.703-3.795-12.632-4.591-26.247-5.622-44.822l-0.468-7.813 1.405-27.464c4.604-92.367 28.643-182.729 70.552-265.197s100.746-155.193 172.678-213.433l43.568-35.277c52.147-42.176 113.525-71.462 179.144-85.478l10.025-2.106c17.804-3.84 30.546-6.554 43.103-6.086 11.238 0.333 19.392 3.187 27.776 13.101 15.834 18.81 27.034 44.122 31.763 70.56 4.685 25.92 2.483 49.216-3.936 65.453-2.086 3.91-5.005 7.322-8.55 9.984-3.539 2.669-7.629 4.531-11.968 5.453l-35.507 7.347-73.646 13.805c-2.449-1.043-4.761-2.381-6.886-3.981l-0.468-0.371c-1.942-1.818-3.833-3.693-5.668-5.613-0.563-0.499-1.14-1.082-1.734-1.734l-0.187-0.186c-7.458-8.013-16.005-14.944-25.391-20.589-25.532-14.502-52.75-12.16-75.143-4.493-32.793 11.187-55.982 35.002-70.833 50.675l-41.975 44.305c-24.184 25.51-46.273 52.922-66.054 81.971l-8.901 13.1c-2.311 3.338-5.122 7.267-8.433 11.79-10.447 14.551-24.689 34.388-33.777 52.822l-4.966 10.433c-25.766 56.519 6.746 112.897 52.656 135.121 3.275 1.596 6.079 4.013 8.14 7.014s3.308 6.484 3.619 10.111l6.23 76.262 2.764 44.588c0.17 2.899-0.394 5.794-1.638 8.418s-3.13 4.941-5.483 6.647zM614.532 48.902l-9.745-45.709c-80.1 17.075-155.029 52.806-218.682 104.288l-43.568 35.277c-82.179 66.515-149.4 149.574-197.282 243.775-47.883 94.198-75.351 197.417-80.616 302.928l-1.639 32.611 0.187 2.62 0.422 7.86c0.937 17.919 2.296 44.214 9.557 68.449 9.369 31.254 29.092 62.601 68.631 81.971 76.22 37.196 167.057 16.469 220.79-11.603 18.367-10.129 33.484-25.249 43.599-43.607s14.815-39.203 13.555-60.119l-2.811-45.524-6.324-77.105c-1.628-19.842-8.403-38.918-19.656-55.351s-26.599-29.654-44.524-38.364c-3.546-1.57-6.442-4.313-8.198-7.766-0.404-0.745-0.599-1.586-0.563-2.433-0.062-0.406 0.094-1.030 0.468-1.872 1.249-2.807 2.499-5.459 3.748-7.953 5.434-10.948 12.415-20.68 21.222-32.938 4.357-6.036 9.135-12.632 14.382-20.352l8.901-13.101c16.977-24.906 35.933-48.406 56.685-70.274l41.975-44.307c15.178-16.048 24.454-23.533 33.027-26.481l1.030-0.281 2.248 2.246 1.171 1.216c3.842 4.024 11.29 11.79 20.285 18.060 15.928 11.088 42.865 25.732 76.408 19.416l75.894-14.223 36.397-7.533c37.478-7.813 69.005-32.47 85.965-66.576l0.659-1.312 0.563-1.357c15.552-36.774 17.613-79.866 10.445-119.776-7.213-40.237-24.55-81.312-52.378-114.342-28.435-33.69-63.52-45.293-96.314-46.323-25.203-0.838-50.831 4.774-68.024 8.518l-7.449 1.587 9.557 45.85v-0.090z" />
<glyph unicode="&#xe928;" glyph-name="way" d="M447.155 917.333h8.38c0.247-0.157 0.495-0.317 0.747-0.471 4.407-2.728 9.847-4.331 14.537-6.642 10.223-5.039 20.284-10.493 30.302-15.925l341.090-188.006c4.629-2.543 9.545-4.939 13.969-7.808 2.846-1.848 4.698-4.253 5.513-7.561 3.554-14.351 2.475-30.954 2.586-45.703 0.149-20.464 0.183-40.928 0.098-61.391-0.166-74.745-1.075-149.574-0.354-224.317 47.787-19.179 82.803-49.395 103.296-97.408 2.347-5.461 4.39-11.029 6.127-16.713 1.741-5.679 3.162-11.439 4.271-17.28 1.114-6.003 1.438-15.036 3.618-20.407v-29.824c-0.047-0.124-0.094-0.252-0.137-0.38-1.967-5.696-2.116-12.527-3.085-18.496-1.020-6.272-2.799-12.612-4.642-18.692-0.435-1.387-0.887-2.769-1.353-4.147-0.469-1.378-0.956-2.748-1.459-4.113-0.508-1.365-1.028-2.722-1.566-4.075-0.538-1.348-1.092-2.692-1.664-4.032-0.572-1.335-1.161-2.667-1.766-3.989s-1.229-2.637-1.869-3.942c-0.636-1.306-1.293-2.603-1.963-3.895-0.674-1.289-1.361-2.569-2.069-3.844-0.704-1.271-1.425-2.534-2.159-3.789-0.738-1.254-1.489-2.5-2.257-3.733s-1.553-2.458-2.355-3.674c-0.798-1.216-1.613-2.423-2.441-3.618-0.832-1.19-1.677-2.377-2.539-3.55-0.858-1.173-1.732-2.334-2.62-3.486-0.892-1.152-1.796-2.291-2.714-3.418s-1.852-2.244-2.799-3.349c-0.943-1.105-1.907-2.197-2.88-3.277s-1.963-2.146-2.965-3.2c-0.998-1.054-2.014-2.099-3.042-3.127s-2.069-2.044-3.123-3.046c-1.054-1.003-2.121-1.993-3.196-2.97-1.079-0.973-2.172-1.933-3.273-2.88-1.105-0.951-2.219-1.886-3.349-2.803-1.126-0.922-2.261-1.826-3.413-2.718-1.148-0.892-2.308-1.766-3.482-2.628s-2.355-1.707-3.55-2.539c-1.19-0.832-2.398-1.647-3.61-2.449-1.216-0.798-2.441-1.583-3.674-2.355-1.233-0.768-2.479-1.523-3.729-2.261-1.254-0.738-2.517-1.459-3.789-2.167-1.271-0.704-2.551-1.395-3.84-2.069-1.293-0.674-2.59-1.331-3.895-1.971-1.306-0.666-2.624-1.318-3.951-1.954-1.323-0.636-2.654-1.259-3.994-1.86-1.344-0.602-2.688-1.19-4.045-1.762-1.353-0.567-2.714-1.122-4.083-1.66s-2.743-1.058-4.122-1.557c-1.382-0.503-2.769-0.99-4.16-1.459-1.395-0.469-2.795-0.922-4.198-1.353-1.404-0.435-2.812-0.853-4.228-1.254-1.412-0.401-2.833-0.781-4.258-1.148-1.421-0.363-2.85-0.713-4.279-1.041-1.434-0.329-2.871-0.64-4.309-0.939-1.442-0.294-2.884-0.567-4.331-0.828s-2.897-0.499-4.348-0.725c-1.455-0.222-2.91-0.427-4.365-0.614-1.459-0.188-2.918-0.358-4.382-0.512-1.459-0.149-2.923-0.286-4.39-0.401-1.463-0.115-2.931-0.213-4.399-0.294-1.468-0.077-2.935-0.141-4.403-0.183s-2.94-0.068-4.407-0.077c-1.472-0.009-2.94 0.004-4.407 0.030-1.472 0.030-2.94 0.077-4.407 0.141s-2.935 0.149-4.403 0.247c-1.468 0.102-2.931 0.222-4.395 0.358s-2.923 0.29-4.382 0.461c-1.459 0.175-2.918 0.367-4.373 0.576-1.455 0.205-2.906 0.435-4.356 0.678s-2.897 0.503-4.339 0.785c-1.442 0.277-2.88 0.576-4.318 0.892-1.434 0.316-2.863 0.649-4.292 0.998-1.425 0.35-2.85 0.717-4.267 1.105-1.421 0.384-2.833 0.785-4.241 1.207-1.408 0.418-2.812 0.858-4.211 1.31-36.258 12.105-69.956 38.097-90.048 70.797-16.201-8.444-33.109-19.618-48.905-29.12l-92.847-55.851c-13.662-8.23-27.375-16.559-41.31-24.311-4.996-2.782-13.892-6.263-17.98-9.207h-7.778c-3.072 2.078-6.554 3.78-9.762 5.653l-19.426 11.452-63.142 37.487-275.081 164.817c-9.812 5.897-23.934 13.325-32.645 20.066-3.025 2.342-4.621 5.841-6.433 9.114v462.114c3.113 4.057 6.882 7.322 11.142 10.127 15.302 10.080 31.728 18.761 47.754 27.641l70.967 39.037 251.52 138.013c7.592 4.175 16.155 8.014 23.106 13.145zM81.643 244.177l324.524-194.726c6.558-3.93 21.246-13.943 27.569-16.239l-0.013 270.925c0 44.169 0.418 88.384-0.077 132.548-10.076 6.562-20.585 12.535-30.899 18.722l-290.868 174.513c-7.090 4.257-23.427 15.321-30.272 17.776 0.396-10.32 0.038-20.726 0.030-31.058l-0.011-58.566-0.006-209.519-0.001-69.116c0-11.712-0.368-23.561 0.023-35.26zM339.965 812.917c-19.73-10.142-39.059-21.231-58.493-31.935-8.273-4.557-16.564-9.672-25.135-13.613 8.624-6.149 17.76-11.692 26.679-17.404l292.762-187.53c4.612-2.957 9.28-6.388 14.195-8.794 6.246 1.972 18.645 10.822 25.062 14.707l57.553 34.478c-26.27 17.51-53.41 33.928-80.098 50.798l-223.599 141.557c-6.343 4.023-23.355 15.906-28.926 17.737zM711.236 626.348c4.1 2.331 8.149 4.745 12.147 7.242l51.729 31.033c9.425 5.658 19.153 11.097 28.322 17.155l0.303-0.154 0.128 0.51 0.452 0.271c-2.197 3.036-47.94 27.012-56.397 31.656l-271.266 148.656c-6.17 3.383-17.079 10.4-23.458 12.402-6.767-2.953-13.265-6.785-19.78-10.276l-35.769-19.27c-6.116-3.278-12.421-7.282-18.902-9.748 22.733-14.905 45.958-29.118 68.96-43.61l215.019-135.478c16.094-10.138 32.038-20.908 48.512-30.388zM552.567 530.509c-7.987 6.252-17.34 11.406-25.903 16.893l-276.343 177.038c-10.107 6.477-20.121 13.271-30.449 19.383-1.207 0.714-2.019 1.16-3.448 1.216-28.63-14.729-56.755-30.734-85.064-46.084-9.978-5.412-19.908-11.271-30.086-16.274l298.217-179.383c14.405-8.687 29.197-18.509 43.99-26.428 3.102-1.958 6.865-5.069 10.628-5.022 5.973 2.577 11.699 6.596 17.301 9.95l64.294 38.481c5.572 3.319 11.639 6.409 16.862 10.231zM609.801 518.562c-0.384-7.326-0.73-74.931 0.068-77.525l0.845-0.397c8.128 3.797 74.146 35.925 76.868 39.236 1.481 5.999 0.401 28.309 0.418 35.895l0.051 31.494c0.009 5.574 0.346 11.396-0.102 16.937-0.235 0.231-0.418 0.541-0.721 0.669l-50.334-29.824c-8.922-5.276-18.812-10.264-27.093-16.485zM824.55 647.428l-83.755-50.217c-3.618-2.169-7.531-4.215-10.901-6.758-1.007-0.763-1.412-1.342-1.719-2.561-1.468-5.843-0.448-15.066-0.405-21.169l0.418-57.658c0.077-12.975 1.033-36.151-2.099-48.115-1.079-4.122-2.479-6.609-6.071-8.939-6.366-4.126-13.636-7.249-20.42-10.667l-35.925-18.095-41.297-20.715c-7.799-3.904-15.676-8.427-23.838-11.49-3.738-1.399-7.838-2.138-11.797-1.331-4.992 1.020-9.911 4.544-12.646 8.811-1.754 2.743-2.33 6.037-2.65 9.229-0.981 9.839-0.29 20.258-0.286 30.178l0.081 57.54-63.356-37.995c-11.349-6.805-23.398-13.222-34.202-20.838-0.58-11.942-0.179-24.060-0.179-36.019l0.013-65.766v-265.344c0-12.105-0.435-24.397 0.171-36.48 7.923 6.212 17.719 11.115 26.398 16.316l50.603 30.383c6.618 3.968 14.298 7.714 20.369 12.42 0.073 21.525 0.009 43.051-0.188 64.576-0.068 13.483-0.994 28.156 1.297 41.472 0.64 3.691 1.485 6.711 4.228 9.417 4.898 4.821 11.721 8.512 17.451 12.318l30.848 20.48c3.942 2.607 9.382 5.333 12.604 8.764 3.2 3.418 6.711 14.741 9.011 19.593 3.055 6.443 6.374 12.945 10.21 18.965 1.003 1.591 2.031 3.166 3.085 4.723 1.050 1.553 2.129 3.093 3.23 4.617s2.227 3.029 3.379 4.514c1.148 1.485 2.321 2.953 3.52 4.403 1.195 1.446 2.415 2.876 3.661 4.284 1.242 1.408 2.509 2.799 3.793 4.169 1.289 1.37 2.598 2.718 3.93 4.045s2.684 2.628 4.058 3.913c1.37 1.284 2.765 2.547 4.177 3.785s2.846 2.453 4.297 3.648c1.455 1.19 2.927 2.359 4.416 3.507 1.489 1.143 2.995 2.266 4.523 3.362 1.523 1.097 3.068 2.172 4.629 3.217 1.557 1.050 3.136 2.069 4.727 3.068s3.204 1.967 4.826 2.914c1.626 0.947 3.264 1.865 4.915 2.761 1.655 0.892 3.324 1.758 5.005 2.594 1.681 0.841 3.375 1.655 5.082 2.436 1.707 0.785 3.426 1.545 5.158 2.274s3.477 1.429 5.231 2.108c1.754 0.67 3.52 1.318 5.291 1.933 1.775 0.619 3.563 1.207 5.355 1.771 1.796 0.559 3.597 1.088 5.406 1.591 1.813 0.499 3.631 0.973 5.457 1.417s3.661 0.862 5.5 1.246c1.839 0.384 3.682 0.738 5.534 1.062 1.852 0.329 3.708 0.623 5.568 0.892 1.86 0.265 3.725 0.503 5.589 0.708 1.869 0.209 3.742 0.384 5.615 0.529s3.746 0.265 5.623 0.35c1.877 0.085 3.759 0.141 5.636 0.171 1.877 0.026 3.759 0.021 5.636-0.017 5.67-0.132 11.605-0.303 17.195-1.233l-0.055 212.841 0.030 45.41c0.013 5.474 0.866 15.673-0.286 20.367l-0.7 0.321zM609.779 182.724c-0.99-22.293 0.538-44.732-0.235-67.038l8.119 4.548c7.441 4.382 14.848 9.118 22.549 13.018-4.838 13.709-8.495 27.413-9.847 41.941-0.405 4.331 0.299 17.626-1.216 20.164-0.405 0.115-0.755 0.256-1.178 0.23-6.089-3.533-13.146-7.962-18.193-12.864zM800.273 330.466c-2.24-0.081-4.471-0.218-6.699-0.41-2.231-0.192-4.454-0.439-6.673-0.738-2.219-0.303-4.425-0.657-6.626-1.067s-4.39-0.87-6.566-1.387c-2.18-0.516-4.343-1.088-6.494-1.711s-4.279-1.297-6.396-2.022c-2.116-0.73-4.215-1.51-6.293-2.338-2.078-0.832-4.134-1.711-6.17-2.645-2.035-0.93-4.045-1.911-6.033-2.94-1.988-1.033-3.947-2.108-5.879-3.238-1.937-1.122-3.84-2.295-5.717-3.516s-3.721-2.483-5.534-3.797c-1.813-1.31-3.597-2.662-5.342-4.062-1.749-1.395-3.465-2.837-5.141-4.318s-3.315-3.004-4.919-4.565c-1.6-1.566-3.166-3.166-4.689-4.804s-3.008-3.315-4.446-5.026c-1.442-1.711-2.842-3.456-4.198-5.239-1.357-1.779-2.667-3.593-3.934-5.436s-2.487-3.721-3.661-5.623c-1.178-1.907-2.304-3.84-3.383-5.798s-2.112-3.947-3.098-5.956c-0.981-2.010-1.911-4.045-2.795-6.101s-1.715-4.134-2.496-6.229c-0.781-2.099-1.51-4.211-2.189-6.345-0.674-2.133-1.301-4.284-1.873-6.447s-1.088-4.339-1.553-6.528c-0.465-2.189-0.879-4.39-1.233-6.601-0.358-2.21-0.661-4.425-0.909-6.647s-0.439-4.454-0.58-6.69c-0.141-2.231-0.222-4.467-0.252-6.703-0.030-2.24-0.004-4.476 0.077-6.711 0.081-2.24 0.218-4.471 0.41-6.703 0.188-2.227 0.435-4.454 0.734-6.669 0.299-2.219 0.653-4.429 1.062-6.63 0.405-2.197 0.866-4.39 1.382-6.566s1.084-4.339 1.707-6.494c0.623-2.15 1.297-4.279 2.022-6.396s1.502-4.215 2.334-6.293c0.828-2.082 1.707-4.139 2.637-6.174s1.911-4.045 2.94-6.033c1.028-1.988 2.108-3.951 3.23-5.884 1.126-1.933 2.3-3.84 3.52-5.717 1.216-1.877 2.479-3.725 3.789-5.538s2.662-3.597 4.058-5.346c1.399-1.749 2.837-3.46 4.318-5.137 1.481-1.681 3.004-3.319 4.565-4.924s3.162-3.166 4.796-4.693c1.643-1.523 3.315-3.008 5.026-4.45s3.456-2.842 5.235-4.198c1.779-1.357 3.593-2.671 5.436-3.938s3.716-2.492 5.623-3.665c1.903-1.178 3.836-2.304 5.794-3.388 1.958-1.079 3.942-2.112 5.956-3.098 2.010-0.986 4.041-1.916 6.097-2.803 2.057-0.883 4.134-1.715 6.229-2.496 2.099-0.785 4.211-1.515 6.345-2.193s4.279-1.301 6.443-1.877c2.163-0.572 4.339-1.092 6.528-1.557 2.193-0.465 4.39-0.879 6.601-1.237 2.206-0.354 4.425-0.661 6.647-0.909 2.223-0.252 4.454-0.444 6.686-0.585 2.236-0.141 4.471-0.226 6.707-0.256 2.24-0.030 4.476-0.004 6.711 0.073 2.24 0.081 4.476 0.213 6.707 0.405 2.231 0.188 4.454 0.431 6.677 0.73 2.219 0.299 4.429 0.653 6.63 1.062 2.202 0.405 4.395 0.866 6.575 1.382 2.176 0.516 4.343 1.084 6.498 1.702 2.15 0.623 4.284 1.297 6.404 2.022 2.116 0.725 4.215 1.502 6.298 2.334 2.078 0.828 4.139 1.707 6.174 2.637 2.039 0.93 4.053 1.911 6.042 2.94s3.951 2.108 5.888 3.234c1.937 1.126 3.844 2.295 5.722 3.516s3.725 2.483 5.542 3.793c1.818 1.31 3.601 2.662 5.35 4.062s3.465 2.837 5.146 4.322c1.677 1.481 3.319 2.999 4.924 4.565 1.604 1.562 3.17 3.162 4.698 4.8 1.523 1.643 3.008 3.315 4.454 5.026 1.442 1.715 2.842 3.46 4.198 5.244 1.361 1.779 2.675 3.593 3.942 5.44 1.267 1.843 2.492 3.721 3.665 5.623 1.178 1.907 2.308 3.84 3.388 5.803 1.084 1.958 2.116 3.947 3.102 5.956 0.981 2.014 1.916 4.049 2.799 6.106 0.887 2.057 1.719 4.134 2.5 6.234s1.515 4.215 2.193 6.353c0.678 2.133 1.301 4.284 1.873 6.447 0.576 2.167 1.092 4.343 1.557 6.532 0.465 2.193 0.879 4.395 1.237 6.605 0.354 2.21 0.657 4.429 0.909 6.656 0.247 2.223 0.439 4.454 0.58 6.69s0.222 4.471 0.252 6.711c0.030 2.24 0.004 4.48-0.077 6.716-0.081 2.24-0.218 4.476-0.41 6.707-0.188 2.231-0.435 4.454-0.734 6.677-0.299 2.214-0.653 4.425-1.062 6.63-0.41 2.202-0.87 4.39-1.387 6.571s-1.088 4.343-1.707 6.498c-0.623 2.15-1.297 4.284-2.027 6.4-0.725 2.121-1.506 4.22-2.338 6.298-0.828 2.082-1.711 4.139-2.641 6.178-0.93 2.035-1.911 4.049-2.944 6.037-1.028 1.988-2.108 3.951-3.234 5.884-1.126 1.937-2.3 3.844-3.52 5.722s-2.487 3.725-3.797 5.542c-1.31 1.813-2.667 3.597-4.062 5.346-1.399 1.749-2.842 3.465-4.326 5.141-1.481 1.677-3.004 3.319-4.565 4.924-1.566 1.604-3.166 3.166-4.809 4.693-1.638 1.523-3.315 3.008-5.030 4.45-1.711 1.442-3.46 2.842-5.239 4.198-1.783 1.357-3.597 2.671-5.444 3.938-1.843 1.267-3.721 2.487-5.628 3.665s-3.84 2.304-5.803 3.383c-1.958 1.079-3.947 2.112-5.961 3.093-2.010 0.986-4.045 1.92-6.106 2.803-2.057 0.879-4.134 1.711-6.238 2.492-2.095 0.781-4.215 1.51-6.349 2.189s-4.284 1.301-6.451 1.873c-2.163 0.572-4.343 1.088-6.532 1.553-2.193 0.465-4.395 0.875-6.605 1.229-2.21 0.358-4.429 0.661-6.656 0.909-2.223 0.247-4.454 0.439-6.69 0.576s-4.471 0.222-6.711 0.247c-2.24 0.030-4.48 0-6.716-0.081zM256.284 350.707c3.617-0.405 7.069-1.399 10.301-3.089 11.128-5.811 21.683-13.257 32.111-20.237l72.208-48.589c5.461-3.657 11.308-7.155 16.364-11.345 4.864-4.036 6.23-8.235 6.824-14.246 0.631-6.345 0.378-12.932 0.418-19.307l0.13-34.893 0.055-35.571c0-9.702 0.172-19.529-0.979-29.175-0.512-4.279-0.904-8.546-3.797-11.938-3.606-4.233-8.708-5.952-14.073-6.464-0.979 0.017-1.956 0.064-2.931 0.137-1.255 0.090-2.486 0.316-3.692 0.67s-2.362 0.832-3.467 1.438c-5.223 2.825-10.188 6.485-15.136 9.766l-25.452 16.853-42.422 28.015c-12.971 8.567-33.719 20.774-43.466 32.307-0.031 0.132-0.068 0.269-0.096 0.405-2.114 10.244-1.096 32.563-1.135 44.002-0.088 25.801-1.351 54.886 0.948 80.307 0.345 3.823 0.73 8.602 2.844 11.895 3.263 5.082 8.708 7.799 14.443 9.058zM277.367 223.142l52.956-35.452c5.599-3.733 20.049-14.43 25.309-16.137 0.455 13.274-0.011 26.688 0.004 39.983 0.011 9.873 0.783 20.489-0.323 30.276-13.070 9.946-28.015 18.876-41.748 28.041l-23.093 15.475c-4.247 2.854-8.461 5.978-12.888 8.533-0.568-9.485-0.229-19.14-0.233-28.642-0.006-14.025-0.145-28.058 0.016-42.078zM860.13 252.045c1.348 0.137 2.748 0.307 4.109 0.286 0.67-0.004 1.34-0.047 2.005-0.124 0.666-0.073 1.323-0.183 1.98-0.324 0.653-0.141 1.297-0.316 1.937-0.525 0.636-0.209 1.259-0.452 1.869-0.725 0.614-0.273 1.212-0.576 1.792-0.909s1.143-0.695 1.685-1.088c0.542-0.393 1.067-0.811 1.566-1.254 0.499-0.448 0.977-0.917 1.429-1.408 3.477-3.729 5.167-8.742 4.983-13.807-0.132-3.605-1.050-6.69-3.102-9.634-5.658-8.132-17.331-18.402-24.55-25.796-14.481-14.839-28.595-30.221-43.61-44.523-6.886-6.562-17.95-17.771-28.070-17.254-11.661 0.593-27.23 19.806-35.17 28.139-6.878 7.309-20.467 18.018-21.79 28.096-0.081 0.653-0.132 1.301-0.145 1.954-0.017 0.653 0 1.306 0.047 1.958 0.051 0.653 0.132 1.297 0.243 1.941 0.115 0.644 0.26 1.284 0.435 1.911 0.175 0.631 0.38 1.25 0.619 1.856 0.239 0.61 0.503 1.207 0.798 1.788 0.299 0.585 0.623 1.152 0.973 1.702 0.354 0.55 0.734 1.079 1.139 1.591 0.401 0.525 0.828 1.020 1.28 1.498 0.457 0.474 0.93 0.926 1.434 1.353 0.499 0.427 1.020 0.823 1.562 1.195 0.542 0.375 1.101 0.717 1.677 1.033 0.576 0.311 1.169 0.597 1.775 0.849 0.61 0.256 1.229 0.474 1.856 0.666 0.631 0.188 1.267 0.346 1.911 0.465 0.644 0.124 1.297 0.213 1.95 0.269 0.892 0.081 1.779 0.102 2.671 0.060s1.779-0.149 2.654-0.316c0.879-0.171 1.737-0.401 2.581-0.691s1.664-0.636 2.458-1.045c9.963-5.065 21.193-20.817 30.613-28.433l0.495-0.393c3.58 4.617 8.158 8.713 12.284 12.86l41.114 41.28c3.789 3.797 7.501 7.987 11.686 11.332 2.718 2.172 5.419 3.456 8.828 4.169z" />
<glyph unicode="&#xe929;" glyph-name="litening" horiz-adv-x="896" d="M462.828 906.947c12.241 10.575 29.668 13.435 44.875 6.833 17.366-7.546 27.683-25.627 25.334-44.417l-36.667-293.375h335.669c16.55 0 31.603-9.591 38.624-24.584 6.138-13.116 5.19-28.305-2.253-40.417l-3.584-5-426.665-511.998c-12.126-14.547-32.419-19.334-49.791-11.795-17.366 7.546-27.682 25.626-25.333 44.416l36.666 293.376h-335.667c-16.555 0-31.603 9.592-38.625 24.584-7.018 14.991-4.764 32.7 5.833 45.417l426.667 512 4.916 4.958zM155.161 405.322h292.875c12.238 0 23.901-5.242 32-14.417s11.852-21.398 10.333-33.542l-24.625-196.877 275.165 330.169h-292.873c-12.238 0-23.901 5.242-32 14.417s-11.852 21.398-10.333 33.541l24.584 196.917-275.125-330.209z" />
<glyph unicode="&#xe92a;" glyph-name="telegram" horiz-adv-x="1170" d="M1083.648 959.894c-14.453-1.044-28.635-4.346-42.006-9.78h-0.183c-12.829-4.956-73.83-29.954-166.576-67.846l-332.348-136.35c-238.479-97.8-472.904-194.109-472.904-194.109l2.791 1.053c0 0-16.163-5.175-33.046-16.446-10.454-6.437-19.435-14.901-26.382-24.867-8.284-11.841-14.947-29.953-12.471-48.68 4.052-31.665 25.122-50.654 40.249-61.136 15.307-10.613 29.894-15.569 29.894-15.569h0.36l219.839-72.144c9.86-30.831 66.992-213.805 80.723-255.95 8.104-25.168 15.983-40.916 25.843-52.933 4.712-6.137 10.399-11.271 17.063-15.397 3.461-2.026 7.186-3.584 11.075-4.645l-2.251 0.527c0.676-0.176 1.216-0.702 1.711-0.878 1.801-0.483 3.016-0.658 5.313-1.009 34.801-10.262 62.759 10.789 62.759 10.789l1.575 1.229 129.796 115.12 217.547-162.575 4.952-2.063c45.334-19.383 91.253-8.594 115.522 10.437 24.444 19.171 33.946 43.681 33.946 43.681l1.58 3.95 168.104 838.935c4.776 20.7 5.99 40.084 0.724 58.899-5.405 19.055-17.957 35.441-35.167 45.918-14.424 8.552-31.166 12.678-48.033 11.841zM1079.099 869.987c-0.176-2.763 0.358-2.455-0.9-7.763v-0.482l-166.532-830.204c-0.724-1.185-1.938-3.774-5.266-6.363-3.518-2.721-6.305-4.425-20.941 1.229l-266.073 198.715-160.726-142.709 33.766 210.074 434.725 394.71c17.92 16.227 11.93 19.648 11.93 19.648 1.265 19.911-27.056 5.833-27.056 5.833l-548.18-330.811-0.18 0.877-263.42 86.486 1.35 0.526 1.441 0.702 1.396 0.482c0 0 234.606 96.309 473.084 194.109 119.397 48.988 239.694 98.327 332.212 136.395 54.872 22.498 109.795 44.865 164.776 67.101 3.694 1.403 1.938 1.447 4.593 1.447z" />
<glyph unicode="&#xe92b;" glyph-name="whatsapp" d="M874.771 811.005c-47.181 47.406-103.373 84.994-165.306 110.573-61.926 25.58-128.354 38.639-195.407 38.418-280.957 0-509.942-227.839-509.942-507.391 0-89.6 23.67-176.639 67.924-253.439l-72.040-263.168 270.151 70.656c74.612-40.448 158.488-61.952 243.907-61.952 280.956 0 509.942 227.84 509.942 507.391 0 135.679-52.998 263.167-149.229 358.911zM514.058 30.72c-76.157 0-150.77 20.48-216.12 58.88l-15.437 9.216-160.547-41.984 42.709 155.648-10.291 15.872c-42.321 67.219-64.788 144.932-64.836 224.255 0 232.447 190.392 421.887 424.008 421.887 113.206 0 219.724-44.032 299.48-123.903 39.501-39.11 70.803-85.634 92.090-136.874s32.141-106.176 31.923-161.621c1.030-232.447-189.363-421.375-422.979-421.375zM746.643 346.111c-12.864 6.144-75.642 36.864-86.963 41.472-11.834 4.096-20.066 6.144-28.813-6.144-8.748-12.8-32.933-41.472-40.137-49.664-7.204-8.704-14.923-9.728-27.787-3.072-12.865 6.144-54.030 19.968-102.4 62.976-38.079 33.792-63.293 75.264-71.011 88.064-7.204 12.8-1.029 19.456 5.66 26.112 5.661 5.632 12.865 14.848 19.039 22.015s8.748 12.8 12.865 20.992c4.116 8.704 2.058 15.872-1.029 22.016s-28.817 68.608-39.108 94.208c-10.291 24.576-21.098 21.504-28.816 22.016h-24.7c-8.748 0-22.127-3.072-33.962-15.872-11.321-12.8-44.253-43.52-44.253-105.984s45.797-122.879 51.972-131.071c6.175-8.704 90.050-136.703 217.664-191.487 30.36-13.312 54.031-20.992 72.555-26.624 30.36-9.728 58.146-8.192 80.271-5.12 24.704 3.584 75.648 30.72 85.939 60.416 10.803 29.696 10.803 54.783 7.2 60.415s-11.322 8.192-24.186 14.336z" />
<glyph unicode="&#xe92c;" glyph-name="round2" d="M511.945-49.766c274.915 0 497.779 222.865 497.779 497.78s-222.864 497.778-497.779 497.778c-274.915 0-497.778-222.863-497.778-497.778s222.863-497.78 497.778-497.78z" />
<glyph unicode="&#xe92d;" glyph-name="search" d="M469.3 789.342c-164.949 0-298.666-133.718-298.666-298.666 0-164.951 133.718-298.665 298.666-298.665 164.951 0 298.664 133.714 298.664 298.665 0 164.949-133.714 298.666-298.664 298.666zM85.3 490.675c0 212.077 171.922 384 383.999 384 212.080 0 383.999-171.923 383.999-384s-171.919-384-383.999-384c-212.077 0-383.999 171.924-383.999 384zM680.294 279.752c16.666 16.666 43.679 16.666 60.344 0l185.6-185.6c16.66-16.66 16.66-43.674 0-60.339-16.666-16.66-43.679-16.66-60.344 0l-185.6 185.6c-16.66 16.666-16.66 43.679 0 60.339z" />
<glyph unicode="&#xe92f;" glyph-name="quest" d="M511.958 832.010c-212.077 0-384-171.923-384-384 0-212.074 171.923-383.997 384-383.997 212.080 0 383.997 171.923 383.997 383.997 0 212.077-171.917 384-383.997 384zM42.625 448.010c0 259.206 210.128 469.334 469.333 469.334 259.203 0 469.334-210.128 469.334-469.334 0-259.204-210.131-469.335-469.334-469.335-259.206 0-469.333 210.131-469.333 469.335zM522.977 617.626c-19.862 3.407-40.289-0.326-57.663-10.536s-30.573-26.241-37.261-45.251c-7.82-22.229-32.179-33.91-54.408-26.091s-33.91 32.179-26.090 54.408c13.375 38.021 39.774 70.081 74.522 90.503s75.602 27.887 115.327 21.073c39.724-6.814 75.756-27.467 101.711-58.301 25.948-30.828 40.156-69.843 40.105-110.139-0.019-65.295-48.432-108.415-83.002-131.462-18.587-12.392-36.87-21.503-50.339-27.489-6.795-3.020-12.516-5.311-16.639-6.882-2.065-0.787-3.739-1.396-4.958-1.83l-1.482-0.519-0.703-0.24c-0.013-0.004-0.054-0.018-13.546 40.46l13.492-40.477c-22.355-7.452-46.518 4.63-53.969 26.985-7.447 22.34 4.614 46.486 26.94 53.955l-0.054-0.019c0.004 0.002 0.008 0.003 0.054 0.019l0.68 0.239c0.657 0.234 1.732 0.624 3.167 1.171 2.877 1.096 7.155 2.804 12.36 5.118 10.532 4.68 24.248 11.569 37.661 20.511 29.423 19.615 45.001 40.483 45.001 60.499v0.063c0.030 20.152-7.073 39.665-20.051 55.082s-30.994 25.743-50.856 29.15zM469.375 234.675c0 23.565 19.103 42.669 42.667 42.669h0.427c23.564 0 42.666-19.104 42.666-42.669s-19.102-42.662-42.666-42.662h-0.427c-23.564 0-42.667 19.098-42.667 42.662z" />
</font>
</defs>
</svg>
